<svg width="44" height="44" viewBox="0 0 44 44" fill="none" xmlns="http://www.w3.org/2000/svg">
<circle cx="22" cy="22" r="22" fill="#FCD800"/>
<mask id="mask0_1656_31380" style="mask-type:alpha" maskUnits="userSpaceOnUse" x="7" y="6" width="32" height="32">
<rect x="7" y="6" width="32" height="32" fill="#D9D9D9"/>
</mask>
<g mask="url(#mask0_1656_31380)">
<path d="M15.0334 29.0564C16.1667 28.2154 17.4013 27.5513 18.7372 27.0641C20.0731 26.577 21.4949 26.3334 23.0026 26.3334C24.5103 26.3334 25.932 26.577 27.2679 27.0641C28.6038 27.5513 29.8384 28.2154 30.9718 29.0564C31.8008 28.1453 32.4577 27.0906 32.9423 25.8923C33.4269 24.694 33.6692 23.3966 33.6692 22C33.6692 19.0445 32.6304 16.5278 30.5526 14.45C28.4748 12.3722 25.9581 11.3333 23.0026 11.3333C20.047 11.3333 17.5303 12.3722 15.4526 14.45C13.3748 16.5278 12.3359 19.0445 12.3359 22C12.3359 23.3966 12.5782 24.694 13.0628 25.8923C13.5475 27.0906 14.2043 28.1453 15.0334 29.0564ZM23.003 23C21.7856 23 20.759 22.5822 19.9231 21.7465C19.0872 20.9109 18.6693 19.8844 18.6693 18.6671C18.6693 17.4497 19.0871 16.4231 19.9227 15.5872C20.7583 14.7513 21.7848 14.3334 23.0022 14.3334C24.2195 14.3334 25.2461 14.7512 26.082 15.5868C26.9179 16.4225 27.3359 17.4489 27.3359 18.6663C27.3359 19.8836 26.9181 20.9103 26.0824 21.7461C25.2468 22.582 24.2203 23 23.003 23ZM23.0026 34.6666C21.2436 34.6666 19.5936 34.3359 18.0526 33.6743C16.5116 33.0128 15.171 32.1119 14.0308 30.9718C12.8906 29.8316 11.9898 28.491 11.3283 26.95C10.6667 25.409 10.3359 23.759 10.3359 22C10.3359 20.241 10.6667 18.591 11.3283 17.05C11.9898 15.509 12.8906 14.1684 14.0308 13.0282C15.171 11.8881 16.5116 10.9872 18.0526 10.3257C19.5936 9.66415 21.2436 9.33337 23.0026 9.33337C24.7615 9.33337 26.4115 9.66415 27.9525 10.3257C29.4936 10.9872 30.8342 11.8881 31.9743 13.0282C33.1145 14.1684 34.0153 15.509 34.6769 17.05C35.3384 18.591 35.6692 20.241 35.6692 22C35.6692 23.759 35.3384 25.409 34.6769 26.95C34.0153 28.491 33.1145 29.8316 31.9743 30.9718C30.8342 32.1119 29.4936 33.0128 27.9525 33.6743C26.4115 34.3359 24.7615 34.6666 23.0026 34.6666ZM23.0026 32.6667C24.206 32.6667 25.3662 32.4731 26.4833 32.0859C27.6004 31.6987 28.5923 31.1573 29.459 30.4615C28.5923 29.7915 27.6133 29.2692 26.5218 28.8949C25.4304 28.5205 24.2573 28.3333 23.0026 28.3333C21.7479 28.3333 20.5726 28.5184 19.4769 28.8884C18.3812 29.2585 17.4042 29.7829 16.5461 30.4615C17.4128 31.1573 18.4047 31.6987 19.5218 32.0859C20.6389 32.4731 21.7991 32.6667 23.0026 32.6667ZM23.0026 21C23.6658 21 24.2205 20.777 24.6667 20.3308C25.1129 19.8846 25.3359 19.3299 25.3359 18.6667C25.3359 18.0034 25.1129 17.4487 24.6667 17.0025C24.2205 16.5564 23.6658 16.3333 23.0026 16.3333C22.3393 16.3333 21.7846 16.5564 21.3384 17.0025C20.8923 17.4487 20.6692 18.0034 20.6692 18.6667C20.6692 19.3299 20.8923 19.8846 21.3384 20.3308C21.7846 20.777 22.3393 21 23.0026 21Z" fill="#262626"/>
</g>
</svg>
