<svg width="40" height="40" viewBox="0 0 40 40" fill="none" xmlns="http://www.w3.org/2000/svg">
<circle cx="20" cy="20" r="20" fill="#E6F6FA"/>
<mask id="mask0_1925_19809" style="mask-type:alpha" maskUnits="userSpaceOnUse" x="4" y="4" width="32" height="32">
<rect x="4" y="4" width="32" height="32" fill="#D9D9D9"/>
</mask>
<g mask="url(#mask0_1925_19809)">
<path d="M9.66406 29.1537V27.1537H12.3307V17.4871C12.3307 15.6768 12.8906 14.0764 14.0102 12.6858C15.1299 11.2952 16.57 10.4033 18.3307 10.0102V9.07682C18.3307 8.60673 18.491 8.21143 18.8115 7.89092C19.132 7.57041 19.5273 7.41016 19.9974 7.41016C20.4675 7.41016 20.8627 7.57041 21.1832 7.89092C21.5037 8.21143 21.664 8.60673 21.664 9.07682V10.0102C23.4247 10.4033 24.8649 11.2952 25.9845 12.6858C27.1042 14.0764 27.664 15.6768 27.664 17.4871V27.1537H30.3307V29.1537H9.66406ZM19.9974 33.0768C19.341 33.0768 18.7752 32.8434 18.2999 32.3768C17.8247 31.9101 17.5871 31.34 17.5871 30.6665H22.4076C22.4076 31.34 22.1743 31.9101 21.7076 32.3768C21.2409 32.8434 20.6709 33.0768 19.9974 33.0768ZM14.3307 27.1537H25.6641V17.4871C25.6641 15.9178 25.1119 14.581 24.0076 13.4768C22.9034 12.3725 21.5666 11.8204 19.9974 11.8204C18.4281 11.8204 17.0914 12.3725 15.9871 13.4768C14.8828 14.581 14.3307 15.9178 14.3307 17.4871V27.1537Z" fill="#00A6CA"/>
</g>
</svg>
