<svg width="40" height="40" viewBox="0 0 40 40" fill="none" xmlns="http://www.w3.org/2000/svg">
<ellipse cx="20.0001" cy="20" rx="20.0001" ry="20" fill="#FCD800"/>
<mask id="mask0_1706_23370" style="mask-type:alpha" maskUnits="userSpaceOnUse" x="6" y="6" width="28" height="28">
<rect x="6" y="6" width="28" height="28" fill="#D9D9D9"/>
</mask>
<g mask="url(#mask0_1706_23370)">
<path d="M10.9609 28.0096V26.2596H13.2943V17.8013C13.2943 16.2173 13.7841 14.8169 14.7638 13.6002C15.7435 12.3834 17.0037 11.603 18.5443 11.259V10.4423C18.5443 10.031 18.6845 9.68513 18.9649 9.40468C19.2454 9.12423 19.5912 8.98401 20.0026 8.98401C20.4139 8.98401 20.7598 9.12423 21.0402 9.40468C21.3207 9.68513 21.4609 10.031 21.4609 10.4423V11.259C23.0015 11.603 24.2616 12.3834 25.2413 13.6002C26.221 14.8169 26.7109 16.2173 26.7109 17.8013V26.2596H29.0442V28.0096H10.9609ZM20.0026 31.4423C19.4282 31.4423 18.9331 31.2381 18.5173 30.8298C18.1015 30.4215 17.8936 29.9226 17.8936 29.3333H22.1115C22.1115 29.9226 21.9074 30.4215 21.499 30.8298C21.0907 31.2381 20.5919 31.4423 20.0026 31.4423ZM15.0442 26.2596H24.9609V17.8013C24.9609 16.4282 24.4778 15.2585 23.5116 14.2923C22.5453 13.3261 21.3757 12.8429 20.0026 12.8429C18.6295 12.8429 17.4598 13.3261 16.4936 14.2923C15.5273 15.2585 15.0442 16.4282 15.0442 17.8013V26.2596Z" fill="black"/>
</g>
</svg>
