<svg width="30" height="30" viewBox="0 0 30 30" fill="none" xmlns="http://www.w3.org/2000/svg">
<circle cx="15" cy="15" r="15" fill="#E6F6FA"/>
<mask id="mask0_1756_16480" style="mask-type:alpha" maskUnits="userSpaceOnUse" x="7" y="7" width="16" height="16">
<rect x="7" y="7" width="16" height="16" fill="#D9D9D9"/>
</mask>
<g mask="url(#mask0_1756_16480)">
<path d="M8.66406 13.6667C8.66406 12.7359 8.85488 11.8547 9.23651 11.0231C9.61813 10.1915 10.1564 9.47182 10.8512 8.86414L11.564 9.56669C10.964 10.0889 10.4974 10.7028 10.164 11.4084C9.83071 12.1139 9.66405 12.8667 9.66405 13.6667H8.66406ZM20.3307 13.6667C20.3307 12.8667 20.164 12.1139 19.8307 11.4084C19.4974 10.7028 19.0307 10.0889 18.4307 9.56669L19.1435 8.86414C19.8384 9.47182 20.3766 10.1915 20.7582 11.0231C21.1399 11.8547 21.3307 12.7359 21.3307 13.6667H20.3307ZM9.83073 19.5769V18.577H11.1641V13.7436C11.1641 12.8385 11.444 12.0383 12.0038 11.343C12.5636 10.6477 13.2837 10.2017 14.1641 10.0052V9.5385C14.1641 9.30346 14.2442 9.10581 14.4044 8.94555C14.5647 8.7853 14.7623 8.70517 14.9974 8.70517C15.2324 8.70517 15.4301 8.7853 15.5903 8.94555C15.7506 9.10581 15.8307 9.30346 15.8307 9.5385V10.0052C16.711 10.2017 17.4311 10.6477 17.991 11.343C18.5508 12.0383 18.8307 12.8385 18.8307 13.7436V18.577H20.164V19.5769H9.83073ZM14.9974 21.5385C14.6692 21.5385 14.3863 21.4218 14.1487 21.1885C13.9111 20.9551 13.7923 20.6701 13.7923 20.3333H16.2025C16.2025 20.6701 16.0858 20.9551 15.8525 21.1885C15.6192 21.4218 15.3341 21.5385 14.9974 21.5385ZM12.164 18.577H17.8307V13.7436C17.8307 12.959 17.5547 12.2906 17.0025 11.7385C16.4504 11.1863 15.782 10.9103 14.9974 10.9103C14.2128 10.9103 13.5444 11.1863 12.9922 11.7385C12.4401 12.2906 12.164 12.959 12.164 13.7436V18.577Z" fill="#00A6CA"/>
</g>
</svg>
