<svg width="44" height="44" viewBox="0 0 44 44" fill="none" xmlns="http://www.w3.org/2000/svg">
<circle cx="22" cy="22" r="22" fill="#FCD800"/>
<mask id="mask0_1647_17104" style="mask-type:alpha" maskUnits="userSpaceOnUse" x="6" y="6" width="32" height="32">
<rect x="6" y="6" width="32" height="32" fill="#D9D9D9"/>
</mask>
<g mask="url(#mask0_1647_17104)">
<path d="M9.9974 32.3333C9.34953 32.3333 8.79868 32.1064 8.34486 31.6525C7.891 31.1987 7.66406 30.6478 7.66406 30C7.66406 29.3521 7.89098 28.8013 8.34483 28.3474C8.79867 27.8936 9.34953 27.6667 9.9974 27.6667C10.1478 27.6667 10.2837 27.6731 10.4051 27.6859C10.5265 27.6987 10.647 27.7402 10.7666 27.8103L17.141 21.4359C17.0709 21.3162 17.0295 21.1957 17.0167 21.0743C17.0038 20.953 16.9974 20.8171 16.9974 20.6666C16.9974 20.0188 17.2244 19.4679 17.6782 19.0141C18.132 18.5603 18.6829 18.3333 19.3307 18.3333C19.9786 18.3333 20.5294 18.5603 20.9833 19.0141C21.4371 19.4679 21.664 20.0188 21.664 20.6666C21.664 20.7453 21.6247 20.9932 21.5461 21.4102L25.2538 25.1179C25.3735 25.065 25.4897 25.0321 25.6025 25.0192C25.7154 25.0064 25.847 25 25.9974 25C26.1478 25 26.2816 25.0064 26.3987 25.0192C26.5158 25.0321 26.6299 25.0735 26.741 25.1436L31.8077 20.0769C31.7376 19.9658 31.6962 19.8517 31.6833 19.7346C31.6705 19.6175 31.6641 19.4837 31.6641 19.3333C31.6641 18.6854 31.891 18.1346 32.3449 17.6808C32.7987 17.2269 33.3495 17 33.9974 17C34.6453 17 35.1961 17.2269 35.6499 17.6808C36.1038 18.1346 36.3307 18.6854 36.3307 19.3333C36.3307 19.9812 36.1038 20.532 35.6499 20.9858C35.1961 21.4397 34.6453 21.6666 33.9974 21.6666C33.847 21.6666 33.7132 21.6602 33.5961 21.6474C33.479 21.6346 33.3649 21.5931 33.2538 21.523L28.1871 26.5897C28.2572 26.7008 28.2986 26.8149 28.3115 26.932C28.3243 27.0491 28.3307 27.1829 28.3307 27.3333C28.3307 27.9812 28.1038 28.532 27.6499 28.9858C27.1961 29.4397 26.6453 29.6666 25.9974 29.6666C25.3495 29.6666 24.7987 29.4397 24.3449 28.9858C23.891 28.532 23.6641 27.9812 23.6641 27.3333C23.6641 27.1829 23.6705 27.047 23.6833 26.9256C23.6962 26.8042 23.7376 26.6837 23.8077 26.5641L20.1 22.8563C19.9803 22.9264 19.8598 22.9679 19.7384 22.9807C19.6171 22.9935 19.4812 22.9999 19.3307 22.9999C19.2521 22.9999 19.0042 22.9606 18.5871 22.882L12.2128 29.2564C12.2657 29.376 12.2986 29.4923 12.3115 29.6051C12.3243 29.7179 12.3307 29.8496 12.3307 30C12.3307 30.6478 12.1038 31.1987 11.6499 31.6525C11.1961 32.1064 10.6453 32.3333 9.9974 32.3333ZM11.3307 18.7743L10.6641 17.3333L9.22306 16.6666L10.6641 16L11.3307 14.559L11.9974 16L13.4384 16.6666L11.9974 17.3333L11.3307 18.7743ZM25.9974 17.1922L24.9872 15.0102L22.8052 14L24.9872 12.9897L25.9974 10.8077L27.0076 12.9897L29.1896 14L27.0076 15.0102L25.9974 17.1922Z" fill="#262626"/>
</g>
</svg>
