<svg width="20" height="20" viewBox="0 0 20 20" fill="none" xmlns="http://www.w3.org/2000/svg">
<mask id="mask0_1654_26115" style="mask-type:alpha" maskUnits="userSpaceOnUse" x="0" y="-1" width="20" height="21">
<rect y="-0.000488281" width="20" height="20" fill="#D9D9D9"/>
</mask>
<g mask="url(#mask0_1654_26115)">
<path d="M11.5891 17.5444C11.3493 17.7837 11.0522 17.9033 10.6978 17.9033C10.3433 17.9033 10.0464 17.7837 9.80708 17.5444L2.47375 10.211C2.35303 10.0903 2.25822 9.95134 2.18931 9.79415C2.1204 9.63697 2.08594 9.46931 2.08594 9.29117V3.33283C2.08594 2.99203 2.20907 2.6985 2.45533 2.45225C2.70158 2.20599 2.99511 2.08286 3.33592 2.08286H9.29425C9.46625 2.08286 9.63101 2.11642 9.78852 2.18356C9.94605 2.25069 10.0826 2.34105 10.1981 2.45465L17.5314 9.80081C17.7761 10.0455 17.8997 10.3443 17.9024 10.6974C17.9051 11.0505 17.7867 11.3467 17.5474 11.586L11.5891 17.5444ZM10.6945 16.6662L16.6564 10.7078L9.29783 3.33283H3.33592V9.29117L10.6945 16.6662ZM5.41831 6.45781C5.7074 6.45781 5.95343 6.35663 6.15642 6.15427C6.3594 5.95191 6.4609 5.70619 6.4609 5.41711C6.4609 5.12802 6.35972 4.88199 6.15735 4.679C5.95499 4.47601 5.70927 4.37452 5.42019 4.37452C5.1311 4.37452 4.88507 4.4757 4.68208 4.67806C4.4791 4.88042 4.3776 5.12615 4.3776 5.41523C4.3776 5.70431 4.47879 5.95035 4.68115 6.15333C4.88351 6.35632 5.12923 6.45781 5.41831 6.45781Z" fill="#00A6CA"/>
</g>
</svg>
