<svg width="53" height="53" viewBox="0 0 53 53" fill="none" xmlns="http://www.w3.org/2000/svg">
<circle cx="26.5" cy="26.5" r="26.5" fill="#E6F6FA"/>
<path fill-rule="evenodd" clip-rule="evenodd" d="M25.9223 13.007C24.5399 13.0949 23.365 13.2594 22.1702 13.5322C20.3931 13.9381 18.4914 14.5896 16.8425 15.3576C16.2034 15.6553 16.0798 15.7179 15.5475 16.0139L15 16.3184L15.0093 23.0663L15.0187 29.8143L15.0797 30.1411C15.2399 30.999 15.5547 31.8003 16.0538 32.6211C17.3396 34.7357 19.8631 36.9876 23.4362 39.2089C24.3306 39.7649 25.6362 40.5026 26.3141 40.835L26.6506 41L27.1862 40.7145C29.738 39.3542 32.025 37.8136 33.7149 36.3162C36.1149 34.1899 37.6136 31.9639 38.0121 29.9339L38.0749 29.6141V22.9285V16.2429L37.6597 16.0148C36.5175 15.3873 35.0917 14.7685 33.618 14.2606C31.7648 13.622 29.9956 13.2269 28.2338 13.0585C27.8242 13.0193 26.2722 12.9847 25.9223 13.007ZM27.7923 15.5639C29.4134 15.6931 31.061 16.0571 32.8983 16.6919C33.7862 16.9986 34.9703 17.4771 35.5215 17.7518L35.6257 17.8037L35.6184 23.666L35.6112 29.5284L35.4926 29.8857C34.7459 32.1362 32.3413 34.6191 28.6213 36.9806C27.8529 37.4685 26.6871 38.1478 26.6184 38.1478C26.5671 38.1478 25.354 37.447 24.6905 37.034C23.1485 36.0743 21.856 35.14 20.7182 34.1629C20.1297 33.6575 19.0501 32.5549 18.6996 32.1013C18.0829 31.3033 17.6789 30.5326 17.5305 29.8714C17.4815 29.6527 17.4792 29.3864 17.4792 23.7432V17.8437L17.7837 17.7012C18.4553 17.3869 19.4235 16.9968 20.1644 16.7418C22.1665 16.0529 23.8882 15.6878 25.7701 15.5532C26.0916 15.5301 27.4599 15.5374 27.7923 15.5639ZM25.1334 24.1537V29.9715H26.5452H27.957V24.1537V18.3359H26.5452H25.1334V24.1537ZM25.1334 33.1448V34.5743H26.5452H27.957V33.1448V31.7154H26.5452H25.1334V33.1448Z" fill="#00A6CA"/>
</svg>
