<svg width="53" height="53" viewBox="0 0 53 53" fill="none" xmlns="http://www.w3.org/2000/svg">
<circle cx="26.5" cy="26.5" r="26.5" fill="#E6F6FA"/>
<path fill-rule="evenodd" clip-rule="evenodd" d="M14.0003 15.9344C14.001 17.843 14.3561 20.5795 14.8617 22.5708C16.2106 27.8847 19.1205 32.3008 23.8609 36.2283C25.3737 37.4817 26.1392 38 26.4773 38C26.6195 38 26.9279 37.8777 27.1627 37.7282C27.7953 37.3256 29.3732 36.0783 30.5189 35.0752C36.0801 30.2059 38.6912 24.7186 38.9395 17.3793L39 15.5898L38.7045 15.2949L38.409 15H28.3174H18.2258V16.0063V17.0125H27.5416H36.8575V17.7102C36.8575 18.6654 36.6123 20.573 36.3189 21.9C35.1806 27.0488 32.6152 30.7924 27.3644 34.9669C26.9235 35.3174 26.5279 35.6042 26.4852 35.6042C26.3951 35.6042 25.0851 34.5739 24.1833 33.7937C20.759 30.8314 18.6463 27.8105 17.4312 24.1394C16.6163 21.6774 16.2418 19.5137 16.1435 16.701L16.0841 15H15.042H14L14.0003 15.9344ZM25.5728 19.2485C25.3615 19.3181 25.0852 19.4304 24.9587 19.4982C24.5256 19.7305 23.8749 20.4068 23.6199 20.8899C23.3959 21.3142 23.3648 21.4836 23.3644 22.2833C23.364 23.0855 23.3947 23.2535 23.6235 23.6957L23.883 24.1977L23.3574 24.6938C22.4611 25.5397 21.9713 26.6425 21.9713 27.8149C21.9713 28.7394 22.3095 29.3013 23.0522 29.6109C23.5752 29.829 29.3952 29.829 29.9183 29.6109C30.6609 29.3013 30.9991 28.7394 30.9991 27.8149C30.9991 26.6425 30.5093 25.5397 29.613 24.6938L29.0874 24.1977L29.3469 23.6957C29.5757 23.2535 29.6064 23.0855 29.606 22.2833C29.6056 21.4836 29.5745 21.3142 29.3506 20.8899C29.0372 20.2964 28.3493 19.6492 27.7506 19.3843C27.1971 19.1393 26.1106 19.0717 25.5728 19.2485ZM27.1438 21.4719C27.5526 21.8152 27.6866 22.2686 27.5064 22.6989C27.1252 23.6092 25.8452 23.6092 25.464 22.6989C25.1843 22.031 25.7415 21.2292 26.4852 21.2292C26.7404 21.2292 26.944 21.3042 27.1438 21.4719ZM27.4456 25.7008C27.8962 25.8854 28.4843 26.4607 28.7034 26.9312C29.0574 27.6911 29.1842 27.65 26.4852 27.65C23.7866 27.65 23.9158 27.6918 24.2639 26.9312C24.5779 26.2455 25.2852 25.7119 26.1491 25.5091C26.4201 25.4455 27.0494 25.5385 27.4456 25.7008Z" fill="#00A6CA"/>
</svg>
