<svg width="40" height="40" viewBox="0 0 40 40" fill="none" xmlns="http://www.w3.org/2000/svg">
<circle cx="20" cy="20" r="20" fill="#FCD800"/>
<mask id="mask0_1706_23365" style="mask-type:alpha" maskUnits="userSpaceOnUse" x="6" y="6" width="28" height="28">
<rect x="6" y="6" width="28" height="28" fill="#D9D9D9"/>
</mask>
<g mask="url(#mask0_1706_23365)">
<path d="M31.0807 13.359V26.641C31.0807 27.2303 30.8765 27.7291 30.4682 28.1375C30.0598 28.5458 29.561 28.75 28.9717 28.75H11.023C10.4337 28.75 9.9349 28.5458 9.52656 28.1375C9.11823 27.7291 8.91406 27.2303 8.91406 26.641V13.359C8.91406 12.7697 9.11823 12.2709 9.52656 11.8625C9.9349 11.4542 10.4337 11.25 11.023 11.25H28.9717C29.561 11.25 30.0598 11.4542 30.4682 11.8625C30.8765 12.2709 31.0807 12.7697 31.0807 13.359ZM10.664 15.8045H29.3307V13.359C29.3307 13.2693 29.2933 13.187 29.2185 13.1122C29.1437 13.0374 29.0614 13 28.9717 13H11.023C10.9333 13 10.851 13.0374 10.7762 13.1122C10.7014 13.187 10.664 13.2693 10.664 13.359V15.8045ZM10.664 19.5288V26.641C10.664 26.7307 10.7014 26.813 10.7762 26.8878C10.851 26.9626 10.9333 27 11.023 27H28.9717C29.0614 27 29.1437 26.9626 29.2185 26.8878C29.2933 26.813 29.3307 26.7307 29.3307 26.641V19.5288H10.664Z" fill="black"/>
</g>
</svg>
