<svg width="53" height="53" viewBox="0 0 53 53" fill="none" xmlns="http://www.w3.org/2000/svg">
<circle cx="26.5" cy="26.5" r="26.5" fill="#E6F6FA"/>
<path d="M39.9469 17.1663H14.0469C12.9469 17.1663 12.0469 18.0663 12.0469 19.1663V35.4496C12.0469 36.5496 12.9469 37.4496 14.0469 37.4496H38.6302V36.1163H14.0469C13.6802 36.1163 13.3802 35.8163 13.3802 35.4496V27.0163H40.6302V37.3329C41.4135 37.0496 41.9635 36.3163 41.9635 35.4496V19.1663C41.9469 18.0663 41.0469 17.1663 39.9469 17.1663ZM40.6135 25.6829H13.3802V22.6829H40.6302V25.6829H40.6135ZM40.6135 21.3496H13.3802V19.1663C13.3802 18.7996 13.6802 18.4996 14.0469 18.4996H39.9635C40.3302 18.4996 40.6302 18.7996 40.6302 19.1663V21.3496H40.6135Z" fill="#00A6CA"/>
</svg>
