<svg width="53" height="53" viewBox="0 0 53 53" fill="none" xmlns="http://www.w3.org/2000/svg">
<circle cx="26.5" cy="26.5" r="26.5" fill="#E6F6FA"/>
<path d="M26.4151 25.616L28.6818 22.3993V22.166H23.0151V23.366H26.6151L24.5984 26.366V26.616C25.8318 26.316 27.3484 26.7493 27.3484 28.2493C27.3484 29.316 26.6651 29.9493 25.6151 29.9493C24.6984 29.9493 24.0484 29.4827 23.9651 28.566H22.6484C22.7484 30.2493 23.9984 31.2327 25.6318 31.2327C26.7318 31.2327 27.5651 30.816 28.0984 30.166C28.2318 29.8993 28.3818 29.6327 28.5318 29.3827C28.6651 29.0327 28.7318 28.6327 28.7318 28.2327C28.7484 26.9327 27.8984 25.666 26.4151 25.616Z" fill="#00A6CA"/>
<path d="M31.3047 28.6328L31.3547 28.6828C31.3547 28.6661 31.3547 28.6495 31.3547 28.6328H31.3047Z" fill="#00A6CA"/>
<path d="M18.4833 29.9994C17.6 29.9994 16.95 29.5494 16.8667 28.6161H15.5C15.6333 30.2827 16.85 31.2327 18.45 31.2327C20.5333 31.2327 21.6333 29.8327 21.6333 28.2161C21.6333 26.0327 20.1167 25.2827 18.2333 25.2327C17.8167 25.2327 17.4333 25.2661 17.0333 25.3661V23.3994H21.1V22.1494H15.8167V26.6161C16.4667 26.4661 17.3333 26.3161 18.15 26.3661C19.3 26.4327 20.2833 26.8827 20.2667 28.2661C20.2167 29.4827 19.3833 29.9994 18.4833 29.9994Z" fill="#00A6CA"/>
<path d="M39.651 28.5661V19.4495C39.651 18.3495 38.751 17.4495 37.651 17.4495H13.4844C12.3844 17.4495 11.4844 18.3495 11.4844 19.4495V33.8495C11.4844 34.9495 12.3844 35.8495 13.4844 35.8495H27.401C27.301 35.4161 27.251 34.9661 27.2177 34.5161H13.4677C13.101 34.5161 12.801 34.2161 12.801 33.8495V19.4495C12.801 19.0828 13.101 18.7828 13.4677 18.7828H37.6344C38.001 18.7828 38.301 19.0828 38.301 19.4495V27.8328C37.5844 27.5495 36.8177 27.3828 36.001 27.3661C35.651 25.8328 34.301 25.2661 32.701 25.2328C32.2844 25.2328 31.901 25.2661 31.501 25.3661V23.3995H35.5677V22.1495H30.2844V26.6161C30.9344 26.4661 31.801 26.3161 32.6177 26.3661C33.5177 26.4161 34.3177 26.6995 34.601 27.4995C31.5177 28.0828 29.1844 30.7995 29.1844 34.0495C29.1844 37.7328 32.1677 40.7161 35.851 40.7161C39.5344 40.7161 42.5177 37.7328 42.5177 34.0495C42.5344 31.7661 41.3844 29.7661 39.651 28.5661ZM35.8677 39.3828C32.9344 39.3828 30.5344 36.9828 30.5344 34.0495C30.5344 31.1161 32.9344 28.7161 35.8677 28.7161C38.801 28.7161 41.201 31.1161 41.201 34.0495C41.201 36.9828 38.801 39.3828 35.8677 39.3828Z" fill="#00A6CA"/>
<path d="M36.5365 30.6328H35.2031V34.9828H36.5365V30.6328Z" fill="#00A6CA"/>
<path d="M36.4844 36.2661H35.2344V37.5161H36.4844V36.2661Z" fill="#00A6CA"/>
</svg>
