<svg width="53" height="53" viewBox="0 0 53 53" fill="none" xmlns="http://www.w3.org/2000/svg">
<circle cx="26.5" cy="26.5" r="26.5" fill="#E6F6FA"/>
<path d="M41.3302 32.3162C40.5969 31.0328 38.9802 30.5828 37.6969 31.3162L31.4802 34.7495C31.3302 34.8328 31.1969 34.8995 31.0469 34.9662C31.2135 34.6162 31.2969 34.2162 31.2969 33.8162C31.2969 32.2662 30.0302 30.9995 28.4802 30.9995H22.5802C21.1302 30.9995 19.8469 31.6162 18.9302 32.6162C18.7469 31.6995 17.9469 30.9995 16.9635 30.9995H14.2969C13.4302 30.9995 12.6969 31.5495 12.4135 32.3328H16.9635C17.3302 32.3328 17.6302 32.6328 17.6302 32.9995V38.8995C17.6302 39.2662 17.3302 39.5662 16.9635 39.5662H14.2969C13.9302 39.5662 13.6302 39.2662 13.6302 38.8995V34.3328H12.2969V38.8995C12.2969 39.9995 13.1969 40.8995 14.2969 40.8995H16.9635C17.9302 40.8995 18.7469 40.1995 18.9302 39.2828C19.8302 40.2662 21.1302 40.8995 22.5802 40.8995H30.9469C31.2969 40.8995 31.6302 40.8162 31.9302 40.6495L40.3302 35.9995C40.9469 35.6495 41.3969 35.0828 41.5802 34.3828C41.7635 33.6828 41.6802 32.9328 41.3302 32.3162ZM40.2969 33.9828C40.1969 34.3328 39.9802 34.6162 39.6802 34.7828L31.2802 39.4328C31.1802 39.4828 31.0635 39.5162 30.9469 39.5162H22.5802C20.5969 39.5162 18.9635 37.8995 18.9635 35.8995C18.9635 33.8995 20.5802 32.2828 22.5802 32.2828H28.4635C29.2802 32.2828 29.9469 32.9495 29.9469 33.7662C29.9469 34.5828 29.2802 35.2495 28.4635 35.2495H24.6635V36.5828H29.4135C30.3802 36.5828 31.3135 36.3328 32.1469 35.8662L38.3635 32.4328C38.9969 32.0662 39.8135 32.2995 40.1802 32.9328C40.3469 33.2828 40.3969 33.6328 40.2969 33.9828Z" fill="#00A6CA"/>
<path d="M28.1139 27.3995L23.0031 22.0765V20.7534H25.6031C26.3611 20.7534 27.0339 20.5106 27.6216 20.0249C28.2093 19.5393 28.5334 18.8898 28.5939 18.0765H22.2031V16.8765H28.4308C28.2349 16.3278 27.8816 15.8778 27.3708 15.5265C26.8601 15.1752 26.2708 14.9995 25.6031 14.9995H22.2031V13.7996H31.4031V14.9995H28.5261C28.8103 15.2262 29.059 15.5024 29.2723 15.828C29.4857 16.1537 29.6298 16.5031 29.7046 16.8765H31.4031V18.0765H29.8062C29.7508 19.2098 29.3149 20.1393 28.4985 20.8649C27.6821 21.5905 26.7169 21.9534 25.6031 21.9534H24.5538L29.78 27.3995H28.1139Z" fill="#00A6CA"/>
</svg>
