<svg width="20" height="20" viewBox="0 0 20 20" fill="none" xmlns="http://www.w3.org/2000/svg">
<mask id="mask0_1654_26119" style="mask-type:alpha" maskUnits="userSpaceOnUse" x="0" y="-1" width="20" height="21">
<rect y="-0.000488281" width="20" height="20" fill="#D9D9D9"/>
</mask>
<g mask="url(#mask0_1654_26119)">
<path d="M8.8199 13.5444L14.4224 7.94184L13.5443 7.06366L8.8199 11.788L6.4449 9.41301L5.56671 10.2912L8.8199 13.5444ZM10.004 17.9162C8.90903 17.9162 7.87984 17.7084 6.9164 17.2928C5.95294 16.8773 5.11487 16.3133 4.40219 15.601C3.68949 14.8886 3.12528 14.0509 2.70954 13.0879C2.29381 12.1249 2.08594 11.0959 2.08594 10.0009C2.08594 8.90598 2.29372 7.87679 2.70927 6.91334C3.12483 5.94989 3.68878 5.11182 4.40115 4.39914C5.11352 3.68644 5.95122 3.12223 6.91425 2.70649C7.87726 2.29075 8.90624 2.08289 10.0012 2.08289C11.0961 2.08289 12.1253 2.29066 13.0888 2.70622C14.0522 3.12177 14.8903 3.68573 15.603 4.39809C16.3157 5.11047 16.8799 5.94817 17.2956 6.9112C17.7114 7.87421 17.9192 8.90319 17.9192 9.99814C17.9192 11.0931 17.7115 12.1223 17.2959 13.0857C16.8803 14.0492 16.3164 14.8872 15.604 15.5999C14.8916 16.3126 14.0539 16.8768 13.0909 17.2926C12.1279 17.7083 11.0989 17.9162 10.004 17.9162ZM10.0026 16.6662C11.8637 16.6662 13.4401 16.0204 14.7318 14.7287C16.0234 13.437 16.6693 11.8606 16.6693 9.99953C16.6693 8.13842 16.0234 6.56203 14.7318 5.27036C13.4401 3.9787 11.8637 3.33286 10.0026 3.33286C8.14147 3.33286 6.56508 3.9787 5.27342 5.27036C3.98175 6.56203 3.33592 8.13842 3.33592 9.99953C3.33592 11.8606 3.98175 13.437 5.27342 14.7287C6.56508 16.0204 8.14147 16.6662 10.0026 16.6662Z" fill="#008A00"/>
</g>
</svg>
