<svg width="64" height="64" viewBox="0 0 64 64" fill="none" xmlns="http://www.w3.org/2000/svg">
<g id="icons">
<mask id="mask0_1654_26161" style="mask-type:alpha" maskUnits="userSpaceOnUse" x="0" y="-1" width="64" height="65">
<rect id="Bounding box" y="-0.000488281" width="64" height="64" fill="#D9D9D9"/>
</mask>
<g mask="url(#mask0_1654_26161)">
<path id="check_circle" d="M28.2127 43.3431L46.1409 25.4149L43.3307 22.6047L28.2127 37.7227L20.6127 30.1227L17.8025 32.9329L28.2127 43.3431ZM32.0018 57.3328C28.498 57.3328 25.2046 56.6679 22.1215 55.3381C19.0385 54.0084 16.3566 52.2037 14.0761 49.9241C11.7954 47.6445 9.98995 44.9639 8.6596 41.8822C7.32924 38.8006 6.66406 35.5078 6.66406 32.004C6.66406 28.5002 7.32895 25.2068 8.65873 22.1237C9.98851 19.0407 11.7932 16.3588 14.0727 14.0783C16.3523 11.7976 19.033 9.99215 22.1147 8.66179C25.1963 7.33144 28.489 6.66626 31.9929 6.66626C35.4967 6.66626 38.7901 7.33115 41.8731 8.66093C44.9562 9.9907 47.638 11.7954 49.9186 14.0749C52.1992 16.3545 54.0047 19.0352 55.3351 22.1169C56.6654 25.1985 57.3306 28.4912 57.3306 31.9951C57.3306 35.4989 56.6657 38.7923 55.3359 41.8753C54.0062 44.9584 52.2015 47.6402 49.9219 49.9208C47.6423 52.2014 44.9617 54.0069 41.88 55.3373C38.7984 56.6676 35.5056 57.3328 32.0018 57.3328Z" fill="#008A00"/>
</g>
</g>
</svg>
