<svg width="20" height="20" viewBox="0 0 20 20" fill="none" xmlns="http://www.w3.org/2000/svg">
<mask id="mask0_1654_26142" style="mask-type:alpha" maskUnits="userSpaceOnUse" x="0" y="-1" width="20" height="21">
<rect y="-0.000488281" width="20" height="20" fill="#D9D9D9"/>
</mask>
<g mask="url(#mask0_1654_26142)">
<path d="M14.9974 17.203L18.0342 14.1662L17.164 13.296L15.6224 14.8377V11.0621H14.3724V14.8377L12.8307 13.296L11.9605 14.1662L14.9974 17.203ZM11.8724 19.7912V18.5412H18.1224V19.7912H11.8724ZM5.04546 16.4579C4.63521 16.4579 4.28158 16.3094 3.98456 16.0124C3.68756 15.7154 3.53906 15.3617 3.53906 14.9515V3.38097C3.53906 2.97072 3.68756 2.61709 3.98456 2.32007C4.28158 2.02307 4.63521 1.87457 5.04546 1.87457H10.8307L15.6224 6.6662V9.23511H14.3724V7.29118H10.2057V3.12451H5.04546C4.98135 3.12451 4.92258 3.15123 4.86917 3.20466C4.81574 3.25807 4.78902 3.31684 4.78902 3.38095V14.9514C4.78902 15.0156 4.81574 15.0743 4.86917 15.1277C4.92258 15.1812 4.98135 15.2079 5.04546 15.2079H10.0455V16.4578L5.04546 16.4579Z" fill="#00A6CA"/>
</g>
</svg>
