<svg width="38" height="38" viewBox="0 0 38 38" fill="none" xmlns="http://www.w3.org/2000/svg">
<circle cx="14" cy="14" r="14" fill="#FCD800"/>
<path d="M12.5828 25.9167L16.5661 17.2V16.9833H10.3828V18.3H14.5495L11.0828 25.9167H12.5828Z" fill="#00A6CA"/>
<path d="M20.301 16.8667C18.451 16.8667 16.9844 17.85 16.9844 19.85C16.9844 21.7 18.3177 22.7667 20.101 22.7333C20.401 22.7333 20.701 22.65 20.951 22.5167L18.701 25.9333H20.3177L23.0177 21.75C23.4177 21.15 23.6177 20.5667 23.6177 19.8667C23.6177 17.85 22.151 16.8667 20.301 16.8667ZM20.301 21.5667C19.2344 21.5667 18.451 20.95 18.451 19.8333C18.451 18.7167 19.2177 18.1167 20.301 18.1167C21.3677 18.1167 22.1344 18.7167 22.1344 19.8333C22.1344 20.95 21.3844 21.5667 20.301 21.5667Z" fill="#00A6CA"/>
<path d="M37.5672 24.6833L36.6172 23.7333L35.8172 24.5333C35.4339 24.1 35.0005 23.7 34.5339 23.3833V14.45C34.5339 13.35 33.6339 12.45 32.5339 12.45H8.36719C7.26719 12.45 6.36719 13.35 6.36719 14.45V28.85C6.36719 29.95 7.26719 30.85 8.36719 30.85H22.3339C22.2339 30.4167 22.1672 29.9667 22.1339 29.5167H8.38385C8.01719 29.5167 7.71719 29.2167 7.71719 28.85V14.45C7.71719 14.0833 8.01719 13.7833 8.38385 13.7833H32.5505C32.9172 13.7833 33.2172 14.0833 33.2172 14.45V22.6667C32.5339 22.4 31.8005 22.2333 31.0339 22.2167C30.7672 21.6333 30.2839 21.1833 29.6505 20.8833C30.2672 20.5167 30.7005 19.9167 30.7005 19.15C30.7005 17.85 29.6005 16.8167 27.9339 16.8167C26.2505 16.8167 25.1505 17.8833 25.1839 19.1667C25.1839 19.9333 25.6005 20.5167 26.2005 20.8667C25.2339 21.3167 24.6172 22.15 24.6172 23.2333C24.6172 23.9167 24.8672 24.55 25.3172 25.0333C24.5505 26.1167 24.1005 27.4333 24.1005 28.8667C24.1005 32.55 27.0839 35.5333 30.7672 35.5333C34.4505 35.5333 37.4339 32.55 37.4339 28.8667C37.4339 27.7 37.1339 26.5833 36.6005 25.6333L37.5672 24.6833ZM27.9505 18.0167C28.7339 18.0167 29.3839 18.4833 29.3839 19.2333C29.3839 19.9833 28.7505 20.45 27.9339 20.45C27.1505 20.45 26.5005 19.9833 26.5005 19.25C26.5005 18.4833 27.1339 18.0167 27.9505 18.0167ZM27.9339 21.5333C28.6339 21.5333 29.2339 21.8167 29.5672 22.3167C28.3172 22.55 27.1839 23.1333 26.2839 23.9667C26.1505 23.75 26.0839 23.5 26.0839 23.2167C26.0839 22.2 26.9172 21.5333 27.9339 21.5333ZM36.1172 28.8833C36.1172 31.8167 33.7172 34.2167 30.7839 34.2167C27.8505 34.2167 25.4505 31.8167 25.4505 28.8833C25.4505 25.95 27.8505 23.55 30.7839 23.55C32.4339 23.55 33.9005 24.3 34.8839 25.4833L30.8839 29.4833L28.9839 27.5833L28.0339 28.5333L30.4005 30.9C30.5339 31.0333 30.7005 31.1 30.8672 31.1C31.0339 31.1 31.2172 31.0333 31.3339 30.9L35.6005 26.6333C35.9339 27.3167 36.1172 28.0667 36.1172 28.8833Z" fill="#00A6CA"/>
</svg>
