<svg width="53" height="53" viewBox="0 0 53 53" fill="none" xmlns="http://www.w3.org/2000/svg">
<circle cx="26.5" cy="26.5" r="26.5" fill="#E6F6FA"/>
<g clip-path="url(#clip0_1656_28347)">
<path d="M40.2557 36.4777C37.8339 36.4777 35.8641 34.5079 35.8641 32.086V24.6105C35.8641 20.2834 32.8286 16.6344 28.776 15.698V14.4063C28.776 13.1792 27.775 12.1943 26.5641 12.1943C25.337 12.1943 24.3521 13.1954 24.3521 14.4063V15.7787C20.4609 16.8282 17.587 20.3803 17.587 24.6105V32.0699C17.587 34.4917 15.6172 36.4615 13.1953 36.4615V37.7532C16.3276 37.7532 18.8786 35.2022 18.8786 32.0699V24.6105C18.8786 20.2834 22.3984 16.7636 26.7255 16.7636C31.0526 16.7636 34.5724 20.2834 34.5724 24.6105V32.0699C34.5724 33.8459 35.3797 35.4282 36.6552 36.4615H19.4115C19.0724 36.9298 18.6849 37.3657 18.2651 37.7532H23.2703C23.2703 39.5615 24.7396 41.0308 26.5479 41.0308C28.3563 41.0308 29.8255 39.5615 29.8255 37.7693H40.2396C40.5948 37.7693 40.8854 37.4787 40.8854 37.1235C40.8854 36.7683 40.6109 36.4777 40.2557 36.4777ZM27.4844 15.5042C27.226 15.4881 26.9839 15.4719 26.7255 15.4719C26.3542 15.4719 25.999 15.5042 25.6438 15.5365V14.4063C25.6438 13.8896 26.0635 13.486 26.5641 13.486C27.0646 13.486 27.4844 13.9058 27.4844 14.4063V15.5042ZM26.5479 39.7391C25.45 39.7391 24.562 38.8511 24.562 37.7693H28.55C28.5339 38.8511 27.6458 39.7391 26.5479 39.7391Z" fill="#00A6CA"/>
</g>
<defs>
<clipPath id="clip0_1656_28347">
<rect width="31" height="31" fill="white" transform="translate(11 10.9995)"/>
</clipPath>
</defs>
</svg>
