<svg width="53" height="53" viewBox="0 0 53 53" fill="none" xmlns="http://www.w3.org/2000/svg">
<circle cx="26.5" cy="26.5" r="26.5" fill="#E6F6FA"/>
<mask id="mask0_1811_16778" style="mask-type:alpha" maskUnits="userSpaceOnUse" x="10" y="10" width="32" height="32">
<rect x="10" y="10" width="32" height="32" fill="#D9D9D9"/>
</mask>
<g mask="url(#mask0_1811_16778)">
<path d="M36.2307 37.1408L37.0615 36.3101L34.5871 33.8357V30.1537H33.4076V34.3178L36.2307 37.1408ZM17.0743 37.3331C16.4094 37.3331 15.8414 37.0976 15.3705 36.6267C14.8995 36.1557 14.6641 35.5878 14.6641 34.9228V17.0768C14.6641 16.4118 14.8995 15.8439 15.3705 15.3729C15.8414 14.902 16.4094 14.6665 17.0743 14.6665H34.9204C35.5854 14.6665 36.1533 14.902 36.6242 15.3729C37.0952 15.8439 37.3307 16.4118 37.3307 17.0768V25.51C37.0025 25.3699 36.6738 25.2511 36.3448 25.1537C36.0157 25.0562 35.6777 24.9785 35.3307 24.9203V17.0768C35.3307 16.9742 35.288 16.8802 35.2025 16.7947C35.117 16.7092 35.023 16.6665 34.9204 16.6665H17.0743C16.9718 16.6665 16.8777 16.7092 16.7922 16.7947C16.7068 16.8802 16.664 16.9742 16.664 17.0768V34.9228C16.664 35.0254 16.7068 35.1194 16.7922 35.2049C16.8777 35.2904 16.9718 35.3331 17.0743 35.3331H24.8846C24.9341 35.7024 25.0076 36.0515 25.1051 36.3805C25.2025 36.7096 25.3213 37.0271 25.4615 37.3331H17.0743ZM16.664 35.3331V16.6665V24.9203V24.8203V35.3331ZM19.6641 32.1793H25.0205C25.0786 31.8323 25.1649 31.4942 25.2794 31.1652C25.394 30.8361 25.5188 30.5075 25.6538 30.1793H19.6641V32.1793ZM19.6641 26.9998H28.1179C28.6923 26.5126 29.3051 26.1045 29.9563 25.7754C30.6076 25.4464 31.305 25.2126 32.0486 25.0742V24.9998H19.6641V26.9998ZM19.6641 21.8203H32.3307V19.8203H19.6641V21.8203ZM33.9974 40.0767C32.3324 40.0767 30.9162 39.4929 29.7487 38.3254C28.5812 37.1579 27.9974 35.7417 27.9974 34.0767C27.9974 32.4118 28.5812 30.9955 29.7487 29.828C30.9162 28.6605 32.3324 28.0768 33.9974 28.0768C35.6623 28.0768 37.0785 28.6605 38.2461 29.828C39.4136 30.9955 39.9973 32.4118 39.9973 34.0767C39.9973 35.7417 39.4136 37.1579 38.2461 38.3254C37.0785 39.4929 35.6623 40.0767 33.9974 40.0767Z" fill="#00A6CA"/>
</g>
</svg>
