<svg width="53" height="53" viewBox="0 0 53 53" fill="none" xmlns="http://www.w3.org/2000/svg">
<circle cx="26.5" cy="26.5" r="26.5" fill="#E6F6FA"/>
<path d="M41.3302 32.3164C40.5969 31.0331 38.9802 30.5831 37.6969 31.3164L31.4802 34.7497C31.3302 34.8331 31.1969 34.8997 31.0469 34.9664C31.2135 34.6164 31.2969 34.2164 31.2969 33.8164C31.2969 32.2664 30.0302 30.9997 28.4802 30.9997H22.5802C21.1302 30.9997 19.8469 31.6164 18.9302 32.6164C18.7469 31.6997 17.9469 30.9997 16.9635 30.9997H14.2969C13.4302 30.9997 12.6969 31.5497 12.4135 32.3331H16.9635C17.3302 32.3331 17.6302 32.6331 17.6302 32.9997V38.8997C17.6302 39.2664 17.3302 39.5664 16.9635 39.5664H14.2969C13.9302 39.5664 13.6302 39.2664 13.6302 38.8997V34.3331H12.2969V38.8997C12.2969 39.9997 13.1969 40.8997 14.2969 40.8997H16.9635C17.9302 40.8997 18.7469 40.1997 18.9302 39.2831C19.8302 40.2664 21.1302 40.8997 22.5802 40.8997H30.9469C31.2969 40.8997 31.6302 40.8164 31.9302 40.6497L40.3302 35.9997C40.9469 35.6497 41.3969 35.0831 41.5802 34.3831C41.7635 33.6831 41.6802 32.9331 41.3302 32.3164ZM40.2969 33.9831C40.1969 34.3331 39.9802 34.6164 39.6802 34.7831L31.2802 39.4331C31.1802 39.4831 31.0635 39.5164 30.9469 39.5164H22.5802C20.5969 39.5164 18.9635 37.8997 18.9635 35.8997C18.9635 33.8997 20.5802 32.2831 22.5802 32.2831H28.4635C29.2802 32.2831 29.9469 32.9497 29.9469 33.7664C29.9469 34.5831 29.2802 35.2497 28.4635 35.2497H24.6635V36.5831H29.4135C30.3802 36.5831 31.3135 36.3331 32.1469 35.8664L38.3635 32.4331C38.9969 32.0664 39.8135 32.2997 40.1802 32.9331C40.3469 33.2831 40.3969 33.6331 40.2969 33.9831Z" fill="#00A6CA"/>
<path d="M28.1139 27.3993L23.0031 22.0762V20.7532H25.6031C26.3611 20.7532 27.0339 20.5103 27.6216 20.0247C28.2093 19.539 28.5334 18.8896 28.5939 18.0762H22.2031V16.8762H28.4308C28.2349 16.3275 27.8816 15.8775 27.3708 15.5262C26.8601 15.1749 26.2708 14.9993 25.6031 14.9993H22.2031V13.7993H31.4031V14.9993H28.5261C28.8103 15.226 29.059 15.5021 29.2723 15.8278C29.4857 16.1534 29.6298 16.5029 29.7046 16.8762H31.4031V18.0762H29.8062C29.7508 19.2095 29.3149 20.139 28.4985 20.8647C27.6821 21.5903 26.7169 21.9531 25.6031 21.9531H24.5538L29.78 27.3993H28.1139Z" fill="#00A6CA"/>
</svg>
