<svg width="53" height="53" viewBox="0 0 53 53" fill="none" xmlns="http://www.w3.org/2000/svg">
<circle cx="26.5" cy="26.5" r="26.5" fill="#E6F6FA"/>
<g clip-path="url(#clip0_1656_28333)">
<path d="M43.018 32.266C42.6513 28.2993 40.818 24.616 37.868 21.916C37.6513 21.716 37.4513 21.5326 37.218 21.366L36.5346 22.5326C36.668 22.6493 36.818 22.766 36.9513 22.8993C37.8846 23.7493 38.6846 24.716 39.368 25.7493L36.1346 27.616L36.8013 28.766L40.0346 26.8993C40.9346 28.5826 41.4846 30.4493 41.668 32.3826C41.6846 32.566 41.618 32.7493 41.5013 32.8826C41.368 33.016 41.2013 33.0993 41.0013 33.0993H29.418C29.3013 32.666 29.068 32.2826 28.7513 31.966L35.568 20.166C33.018 18.5493 30.0513 17.6826 26.9846 17.6826C22.9513 17.6826 19.1013 19.1826 16.1346 21.8993C13.2013 24.616 11.368 28.2993 10.9846 32.266C10.9346 32.816 11.118 33.3826 11.5013 33.7993C11.8846 34.216 12.418 34.4493 12.9846 34.4493H24.568C24.868 35.516 25.8346 36.316 27.0013 36.316C28.168 36.316 29.1513 35.5326 29.4346 34.4493H41.018C41.5846 34.4493 42.118 34.216 42.5013 33.7993C42.868 33.366 43.068 32.816 43.018 32.266ZM24.568 33.116H12.9846C12.8013 33.116 12.618 33.0326 12.4846 32.8993C12.3513 32.766 12.3013 32.5826 12.318 32.3993C12.5013 30.466 13.068 28.5993 13.968 26.8993L17.218 28.7826L17.8846 27.6326L14.6346 25.7326C15.3013 24.6993 16.118 23.7493 17.0346 22.8993C17.6846 22.2993 18.3846 21.7826 19.1013 21.316L20.9513 24.5326L22.1013 23.866L20.268 20.6493C22.1346 19.6826 24.2013 19.1326 26.3346 19.0493V22.7326H27.668V19.0493C29.8013 19.1493 31.8846 19.6993 33.7513 20.6826L27.6013 31.3326C27.4013 31.2826 27.2013 31.2493 26.9846 31.2493C25.8346 31.2493 24.8513 32.0326 24.568 33.116ZM27.0013 34.966C26.3346 34.966 25.8013 34.4326 25.8013 33.766C25.8013 33.0993 26.3346 32.566 27.0013 32.566C27.668 32.566 28.2013 33.0993 28.2013 33.766C28.2013 34.4326 27.668 34.966 27.0013 34.966Z" fill="#00A6CA"/>
</g>
<defs>
<clipPath id="clip0_1656_28333">
<rect width="32" height="32" fill="white" transform="translate(11 10.9995)"/>
</clipPath>
</defs>
</svg>
