<svg width="20" height="20" viewBox="0 0 20 20" fill="none" xmlns="http://www.w3.org/2000/svg">
<mask id="mask0_1654_26137" style="mask-type:alpha" maskUnits="userSpaceOnUse" x="0" y="-1" width="20" height="21">
<rect y="-0.000488281" width="20" height="20" fill="#D9D9D9"/>
</mask>
<g mask="url(#mask0_1654_26137)">
<path d="M11.368 17.0828L6.04427 11.538V10.1598H8.75258C9.54211 10.1598 10.243 9.90685 10.8552 9.40097C11.4673 8.89508 11.805 8.21853 11.868 7.3713H5.21094V6.12132H11.6981C11.4941 5.54974 11.126 5.08098 10.594 4.71505C10.0619 4.34914 9.44811 4.16618 8.75258 4.16618H5.21094V2.9162H14.7942V4.16618H11.7974C12.0934 4.40229 12.3525 4.68995 12.5747 5.02916C12.7969 5.36838 12.947 5.73243 13.025 6.12132H14.7942V7.3713H13.1308C13.0731 8.55186 12.619 9.52007 11.7686 10.2759C10.9182 11.0318 9.91283 11.4097 8.75258 11.4097H7.6596L13.1035 17.0828H11.368Z" fill="#00A6CA"/>
</g>
</svg>
