<svg width="53" height="53" viewBox="0 0 53 53" fill="none" xmlns="http://www.w3.org/2000/svg">
<circle cx="26.5" cy="26.5" r="26.5" fill="#E6F6FA"/>
<path fill-rule="evenodd" clip-rule="evenodd" d="M13.6052 16.1938C12.9978 16.4948 12.9281 16.8578 13.0503 19.087C13.3694 24.9061 14.9847 29.3227 18.2935 33.4223C19.0429 34.3508 21.9186 37.2386 22.0939 37.2386C22.2078 37.2386 24.074 35.8874 24.0801 35.8005C24.0822 35.7701 23.6523 35.3719 23.1247 34.9156C22.0359 33.9738 20.4268 32.2468 19.5664 31.0964C17.0874 27.782 15.8917 24.3472 15.4377 19.2356L15.3665 18.4336H22.7662H30.1657L31.3884 17.2168L32.611 16L23.3032 16.0002C14.6652 16.0003 13.9674 16.0143 13.6052 16.1938ZM31.0547 20.977L26.0391 25.954L24.9764 24.9036L23.9138 23.8532L23.0508 24.7144L22.1878 25.5757L23.8418 27.2037L25.496 28.8316H26.0422H26.5885L31.6101 23.8538C34.372 21.1161 36.6668 18.8761 36.7096 18.8761C36.9049 18.8761 36.4732 22.1386 36.0628 23.7635C34.7276 29.0497 31.4915 33.289 25.1169 38.1026C24.611 38.4845 24.1971 38.8353 24.1971 38.882C24.1971 38.9678 24.5344 39.2343 25.2722 39.731C25.8198 40.0998 26.3771 40.0894 26.9596 39.6998C27.2098 39.5324 27.9574 38.9673 28.621 38.4438C34.8033 33.5668 37.7943 28.7883 38.8534 22.0957C39.1176 20.4259 39.2636 17.28 39.0999 16.7823C38.9041 16.1874 38.4333 16.0003 37.1298 16.0002L36.0702 16L31.0547 20.977Z" fill="#00A6CA"/>
</svg>
