<svg width="53" height="53" viewBox="0 0 53 53" fill="none" xmlns="http://www.w3.org/2000/svg">
<circle cx="26.5" cy="26.5" r="26.5" fill="#E6F6FA"/>
<path fill-rule="evenodd" clip-rule="evenodd" d="M22.864 14.2069C22.2478 14.5304 21.9604 15.0353 21.9604 15.7943V16.4375L20.5084 16.4768C19.1231 16.5141 19.0307 16.5315 18.5033 16.8538C17.8483 17.2541 17.2595 17.9765 17.0943 18.5825C17.0148 18.8748 16.9858 22.1407 17.0064 28.5026C17.0356 37.5051 17.0479 38.007 17.2479 38.3785C17.5421 38.9249 18.088 39.4732 18.6217 39.7582C19.0726 39.999 19.1038 40 26.4875 40C33.8712 40 33.9025 39.999 34.3534 39.7582C34.887 39.4732 35.433 38.9249 35.7271 38.3785C35.9263 38.0084 35.9396 37.5337 35.969 29.6838L36 21.3805H34.8089H33.6177V29.2695V37.1585L33.3399 37.433L33.0621 37.7075H26.4875H19.9129L19.6352 37.433L19.3573 37.1585V28.2879C19.3573 20.4403 19.3777 19.3887 19.5336 19.1688C19.6955 18.9403 19.8004 18.9202 20.8351 18.9202H21.9604V20.1504V21.3805H26.4875H31.0146V20.1525V18.9245L33.4941 18.8944L35.9735 18.8643L35.8228 18.4312C35.615 17.8342 35.1125 17.2496 34.4646 16.8514C33.9446 16.5317 33.8504 16.514 32.4667 16.4768L31.0146 16.4375V15.7943C31.0146 15.0279 30.7129 14.4964 30.107 14.1957C29.7595 14.0232 29.3325 14.0001 26.4857 14C23.5619 13.9998 23.2213 14.0192 22.864 14.2069ZM28.4703 16.7272C28.6035 16.928 28.6393 17.2263 28.6144 17.9293L28.5813 18.8643H26.4875H24.3937V17.8468C24.3937 17.1484 24.4425 16.7712 24.549 16.6446C24.6814 16.4873 24.9693 16.46 26.4987 16.46C28.2657 16.46 28.2959 16.4642 28.4703 16.7272ZM21.9604 29.0408V30.215H26.4875H31.0146V29.0408V27.8666H26.4875H21.9604V29.0408ZM21.9604 33.9612V35.1354H26.4875H31.0146V33.9612V32.787H26.4875H21.9604V33.9612Z" fill="#00A6CA"/>
</svg>
