<svg width="53" height="53" viewBox="0 0 53 53" fill="none" xmlns="http://www.w3.org/2000/svg">
<circle cx="26.5" cy="26.5" r="26.5" fill="#E6F6FA"/>
<path fill-rule="evenodd" clip-rule="evenodd" d="M16.8247 17.572C15.3957 18.9865 14.17 20.2797 14.1007 20.4459C14.0139 20.6542 13.9849 23.2244 14.0072 28.75L14.0396 36.7523L14.3605 37.2948C14.7587 37.9679 15.3831 38.4894 16.068 38.7213C16.8522 38.9867 30.7532 39 31.5325 39C32.2388 38.8893 32.4278 38.7213 33.2184 37.2948L33.5394 36.7523L33.5738 35.6525L33.6081 34.5528L32.3769 35.7688L31.5176 36.3463L31.1457 36.4078C31.1429 36.2903 31.109 35.8828 30.9639 36.0884L30.7822 36.3463H23.7972C17.443 36.3463 16.7977 36.329 16.6518 36.1545C16.5205 35.9972 16.4916 34.8533 16.4916 29.8028V23.6429L18.6518 23.5817C20.9719 23.5158 21.282 23.447 22.0112 22.8362C22.2211 22.6603 22.5364 22.2739 22.7117 21.9776C23.0204 21.4559 23.0318 21.3749 23.0694 19.4375L23.1082 17.4363H26.8711C29.9338 17.4363 29.897 17.4669 30.0815 17.6006C30.2849 17.7483 30.3141 17.9562 30.3665 19.6335L30.4249 21.502L31.6344 20.2957L32.0645 19.0894L32.0192 18.1178C31.9677 17.0135 31.7488 15.9891 31.5325 15.7742C31.1429 15.3871 31.9221 15 25.3718 15.0026L19.4227 15L16.8247 17.572ZM20.6166 19.101C20.5896 20.1963 20.5315 20.7058 20.4182 20.8412C20.2831 21.0026 19.9988 21.0326 18.6098 21.0326H16.9616L18.7102 19.2925C19.6719 18.3354 20.5029 17.5523 20.5568 17.5523C20.6108 17.5523 20.6378 18.2492 20.6166 19.101ZM19.1189 27.4713V28.6895H20.3449H21.5709V27.4713V26.2532H20.3449H19.1189V27.4713ZM19.1189 32.5759V33.794H20.3449H21.5709V32.5759V31.3577H20.3449H19.1189V32.5759Z" fill="#00A6CA"/>
<path fill-rule="evenodd" clip-rule="evenodd" d="M31.4053 19.0184C31.2998 19.1008 30.8114 19.9012 30.3198 20.7972C29.8282 21.6931 29.3822 22.4429 29.3286 22.4633C29.275 22.4837 28.4628 22.2769 27.5238 22.0038C26.5848 21.7307 25.6752 21.5072 25.5025 21.5072C25.0793 21.5072 24.7447 21.8229 24.7447 22.2221C24.7447 22.3728 25.0922 23.664 25.5167 25.0913L26.2888 27.6865L26.8262 27.3946C27.234 27.1731 27.3985 27.0341 27.5085 26.8184L27.6533 26.5343L27.2245 25.0629C26.9887 24.2537 26.8106 23.5768 26.8287 23.5587C26.847 23.5407 27.4602 23.6993 28.1915 23.9113C29.6888 24.3452 30.0563 24.3827 30.3085 24.127C30.4006 24.0337 30.7833 23.3897 31.1591 22.6958C31.5348 22.002 31.8593 21.4346 31.8802 21.435C31.9011 21.4354 32.2408 22.0312 32.6353 22.7592C33.0298 23.4872 33.4217 24.1309 33.5062 24.1897C33.7663 24.3707 34.1982 24.3118 35.5713 23.9084C36.2981 23.6949 36.9086 23.5358 36.9278 23.555C36.9472 23.5742 36.7713 24.2493 36.5371 25.0553C35.9705 27.0048 35.8911 26.8202 37.7271 27.8225C39.0389 28.5387 39.1017 28.5831 38.9306 28.6736C37.6963 29.3263 36.5154 29.9957 36.3818 30.1182C36.0737 30.4009 36.0907 30.6099 36.5471 32.1453C36.7826 32.9375 36.9639 33.5969 36.9502 33.6106C36.9363 33.6242 36.2803 33.4481 35.4923 33.2192C33.9524 32.772 33.7037 32.7531 33.4193 33.0618C33.334 33.1545 32.9619 33.7817 32.5924 34.4554C32.2228 35.1292 31.9 35.6805 31.875 35.6805C31.85 35.6805 31.5167 35.1093 31.1345 34.4113C30.7523 33.7133 30.3751 33.0841 30.2963 33.0134C30.0117 32.7575 29.7049 32.7887 28.2391 33.2226C27.4681 33.4508 26.8261 33.6263 26.8122 33.6126C26.7984 33.5988 26.9776 32.934 27.2104 32.1351C27.5773 30.8764 27.6229 30.6503 27.5528 30.439C27.5082 30.305 27.4132 30.1442 27.3417 30.0818C27.1922 29.9513 22.6102 27.4448 22.5826 27.4785C22.5725 27.4907 22.3917 27.8138 22.1806 28.1964L21.7969 28.8921L23.0621 29.5821C23.7579 29.9616 24.6582 30.455 25.0627 30.6785L25.7983 31.0851L25.6931 31.4415C25.6353 31.6376 25.3982 32.4387 25.1663 33.2219C24.9344 34.0051 24.7447 34.7447 24.7447 34.8654C24.7447 35.3173 25.09 35.6805 25.5195 35.6805C25.6077 35.6805 26.4999 35.4419 27.5022 35.1502C28.5044 34.8585 29.3487 34.6465 29.3784 34.679C29.408 34.7115 29.8321 35.4675 30.3208 36.359C30.8095 37.2505 31.2787 38.0393 31.3634 38.1118C31.5718 38.2903 32.1888 38.2903 32.3966 38.1118C32.4811 38.0393 32.949 37.2505 33.4363 36.359C33.9237 35.4675 34.3473 34.7121 34.3778 34.6804C34.4083 34.6486 35.2507 34.8606 36.25 35.1513C37.2492 35.4421 38.142 35.6801 38.234 35.6803C38.6678 35.6809 39.0156 35.3207 39.0156 34.8707C39.0156 34.7531 38.7782 33.8608 38.4879 32.8881C38.0105 31.2881 37.972 31.1105 38.0835 31.0262C38.1513 30.975 38.9389 30.538 39.8337 30.0552C41.2971 29.2657 41.472 29.1505 41.5727 28.9111C41.7119 28.5805 41.6518 28.2171 41.4246 28.014C41.3313 27.9306 40.5205 27.4642 39.6229 26.9775C38.7253 26.4908 37.984 26.0859 37.9755 26.0777C37.967 26.0695 38.1976 25.2577 38.4879 24.2737C38.7781 23.2897 39.0156 22.3638 39.0156 22.2163C39.0156 21.8159 38.6785 21.5068 38.2434 21.5083C38.0628 21.5089 37.164 21.7294 36.2461 21.9983C35.3282 22.2672 34.5255 22.4864 34.4622 22.4854C34.3911 22.4842 34.0041 21.8514 33.4476 20.8262C32.9528 19.9148 32.4614 19.1014 32.3557 19.0188C32.1047 18.8227 31.656 18.8225 31.4053 19.0184Z" fill="#00A6CA"/>
</svg>
