<svg width="40" height="40" viewBox="0 0 40 40" fill="none" xmlns="http://www.w3.org/2000/svg">
<mask id="mask0_1909_32945" style="mask-type:alpha" maskUnits="userSpaceOnUse" x="0" y="0" width="40" height="40">
<rect width="40" height="40" fill="#D9D9D9"/>
</mask>
<g mask="url(#mask0_1909_32945)">
<path d="M23.1704 35.09C22.6908 35.5686 22.0966 35.8079 21.3877 35.8079C20.6788 35.8079 20.085 35.5686 19.6064 35.09L4.93969 20.4233C4.69824 20.1819 4.50862 19.904 4.37081 19.5896C4.23298 19.2752 4.16406 18.9399 4.16406 18.5836V6.66695C4.16406 5.98534 4.41033 5.39828 4.90285 4.90578C5.39535 4.41326 5.98241 4.16699 6.66402 4.16699H18.5807C18.9247 4.16699 19.2542 4.23413 19.5692 4.36841C19.8843 4.50266 20.1573 4.68338 20.3884 4.91058L35.055 19.6029C35.5443 20.0922 35.7917 20.6899 35.797 21.3961C35.8023 22.1023 35.5657 22.6947 35.0871 23.1733L23.1704 35.09ZM21.3812 33.3336L33.3051 21.417L18.5879 6.66695H6.66402V18.5836L21.3812 33.3336ZM10.8288 12.9169C11.407 12.9169 11.899 12.7145 12.305 12.3098C12.711 11.9051 12.914 11.4137 12.914 10.8355C12.914 10.2573 12.7116 9.76526 12.3069 9.35928C11.9022 8.95331 11.4107 8.75033 10.8326 8.75033C10.2544 8.75033 9.76233 8.95269 9.35635 9.35741C8.95038 9.76213 8.7474 10.2536 8.7474 10.8317C8.7474 11.4099 8.94976 11.902 9.35448 12.308C9.7592 12.7139 10.2506 12.9169 10.8288 12.9169Z" fill="#00A6CA"/>
</g>
</svg>
