<svg width="44" height="44" viewBox="0 0 44 44" fill="none" xmlns="http://www.w3.org/2000/svg">
<circle cx="22" cy="22" r="22" fill="#FCD800"/>
<mask id="mask0_1654_21288" style="mask-type:alpha" maskUnits="userSpaceOnUse" x="6" y="6" width="32" height="32">
<rect x="6" y="6" width="32" height="32" fill="#D9D9D9"/>
</mask>
<g mask="url(#mask0_1654_21288)">
<path d="M24.541 34.0718C24.1574 34.4547 23.682 34.6461 23.1148 34.6461C22.5477 34.6461 22.0727 34.4547 21.6898 34.0718L9.95644 22.3384C9.76328 22.1453 9.61158 21.923 9.50134 21.6714C9.39107 21.42 9.33594 21.1517 9.33594 20.8667V11.3333C9.33594 10.7881 9.53295 10.3184 9.92697 9.92441C10.321 9.53038 10.7906 9.33337 11.3359 9.33337H20.8692C21.1444 9.33337 21.408 9.38709 21.6601 9.49451C21.9121 9.60191 22.1305 9.74648 22.3154 9.92824L34.0487 21.6821C34.4401 22.0736 34.638 22.5517 34.6423 23.1167C34.6465 23.6816 34.4572 24.1555 34.0743 24.5384L24.541 34.0718ZM23.1096 32.6667L32.6487 23.1333L20.875 11.3333H11.3359V20.8667L23.1096 32.6667ZM14.6677 16.3333C15.1303 16.3333 15.5239 16.1714 15.8487 15.8476C16.1735 15.5239 16.3359 15.1307 16.3359 14.6682C16.3359 14.2056 16.174 13.812 15.8502 13.4872C15.5264 13.1624 15.1333 13 14.6707 13C14.2082 13 13.8145 13.1619 13.4898 13.4857C13.165 13.8095 13.0026 14.2026 13.0026 14.6652C13.0026 15.1277 13.1645 15.5214 13.4883 15.8461C13.812 16.1709 14.2052 16.3333 14.6677 16.3333Z" fill="#262626"/>
</g>
</svg>
