<svg width="40" height="40" viewBox="0 0 40 40" fill="none" xmlns="http://www.w3.org/2000/svg">
<circle cx="20" cy="20" r="20" fill="#E6F6FA"/>
<mask id="mask0_1925_19807" style="mask-type:alpha" maskUnits="userSpaceOnUse" x="4" y="4" width="32" height="32">
<rect x="4" y="4" width="32" height="32" fill="#D9D9D9"/>
</mask>
<g mask="url(#mask0_1925_19807)">
<path d="M4.66406 27.7183V26.0927C4.66406 25.2056 5.12731 24.4769 6.0538 23.9068C6.98028 23.3368 8.18796 23.0517 9.67683 23.0517C9.92299 23.0517 10.1709 23.0594 10.4204 23.0748C10.67 23.0902 10.9213 23.1201 11.1743 23.1645C10.9144 23.5799 10.7217 24.0111 10.5961 24.4581C10.4704 24.9051 10.4076 25.3637 10.4076 25.8337V27.7183H4.66406ZM12.664 27.7183V25.885C12.664 25.2608 12.8393 24.6902 13.1897 24.1733C13.5401 23.6563 14.0452 23.2056 14.7051 22.8209C15.3649 22.4363 16.1444 22.1479 17.0435 21.9556C17.9426 21.7633 18.9255 21.6671 19.9922 21.6671C21.0794 21.6671 22.0725 21.7633 22.9717 21.9556C23.8708 22.1479 24.6503 22.4363 25.3101 22.8209C25.97 23.2056 26.4717 23.6563 26.8152 24.1733C27.1588 24.6902 27.3306 25.2608 27.3306 25.885V27.7183H12.664ZM29.587 27.7183V25.8376C29.587 25.336 29.5276 24.8634 29.4088 24.4198C29.29 23.9761 29.1118 23.5577 28.8742 23.1645C29.1358 23.1201 29.3858 23.0902 29.6242 23.0748C29.8627 23.0594 30.0982 23.0517 30.3306 23.0517C31.8195 23.0517 33.0251 23.3333 33.9473 23.8966C34.8695 24.4598 35.3306 25.1919 35.3306 26.0927V27.7183H29.587ZM14.7666 25.7184H25.2486V25.5773C25.1119 25.0389 24.5444 24.5859 23.5461 24.2184C22.5478 23.8508 21.3649 23.6671 19.9973 23.6671C18.6298 23.6671 17.4469 23.8508 16.4486 24.2184C15.4503 24.5859 14.8896 25.0389 14.7666 25.5773V25.7184ZM9.67343 21.7568C9.04494 21.7568 8.50805 21.5334 8.06276 21.0865C7.61747 20.6396 7.39483 20.1024 7.39483 19.4748C7.39483 18.839 7.61827 18.3018 8.06516 17.8633C8.51205 17.4248 9.04927 17.2056 9.67683 17.2056C10.3127 17.2056 10.852 17.4248 11.2948 17.8633C11.7375 18.3018 11.9589 18.8402 11.9589 19.4786C11.9589 20.0983 11.7398 20.6329 11.3018 21.0825C10.8638 21.5321 10.321 21.7568 9.67343 21.7568ZM30.3306 21.7568C29.7084 21.7568 29.1725 21.5321 28.723 21.0825C28.2734 20.6329 28.0486 20.0983 28.0486 19.4786C28.0486 18.8402 28.2734 18.3018 28.723 17.8633C29.1725 17.4248 29.7093 17.2056 30.3331 17.2056C30.9759 17.2056 31.5165 17.4248 31.955 17.8633C32.3934 18.3018 32.6127 18.839 32.6127 19.4748C32.6127 20.1024 32.394 20.6396 31.9566 21.0865C31.5192 21.5334 30.9772 21.7568 30.3306 21.7568ZM20.0019 20.6671C19.0416 20.6671 18.2239 20.3306 17.5486 19.6575C16.8734 18.9844 16.5358 18.1671 16.5358 17.2056C16.5358 16.2249 16.8724 15.4028 17.5454 14.7393C18.2185 14.0759 19.0358 13.7441 19.9973 13.7441C20.9781 13.7441 21.8002 14.0754 22.4637 14.738C23.1271 15.4006 23.4588 16.2216 23.4588 17.2011C23.4588 18.1614 23.1275 18.9791 22.465 19.6543C21.8024 20.3295 20.9813 20.6671 20.0019 20.6671ZM20.0037 18.6672C20.4114 18.6672 20.7559 18.5244 21.0371 18.239C21.3183 17.9535 21.4589 17.6069 21.4589 17.1992C21.4589 16.7915 21.3188 16.4471 21.0387 16.1659C20.7586 15.8847 20.4114 15.7441 19.9973 15.7441C19.5939 15.7441 19.2495 15.8841 18.964 16.1643C18.6785 16.4444 18.5358 16.7915 18.5358 17.2056C18.5358 17.609 18.6785 17.9535 18.964 18.239C19.2495 18.5244 19.596 18.6672 20.0037 18.6672Z" fill="#00A6CA"/>
</g>
</svg>
