<svg width="20" height="20" viewBox="0 0 20 20" fill="none" xmlns="http://www.w3.org/2000/svg">
<mask id="mask0_1654_25934" style="mask-type:alpha" maskUnits="userSpaceOnUse" x="0" y="0" width="20" height="20">
<rect width="20" height="20" fill="#D9D9D9"/>
</mask>
<g mask="url(#mask0_1654_25934)">
<path d="M9.9974 14.1666C10.2335 14.1666 10.4314 14.0868 10.5911 13.927C10.7509 13.7673 10.8307 13.5694 10.8307 13.3333C10.8307 13.0972 10.7509 12.8993 10.5911 12.7395C10.4314 12.5798 10.2335 12.5 9.9974 12.5C9.76128 12.5 9.56337 12.5798 9.40365 12.7395C9.24392 12.8993 9.16406 13.0972 9.16406 13.3333C9.16406 13.5694 9.24392 13.7673 9.40365 13.927C9.56337 14.0868 9.76128 14.1666 9.9974 14.1666ZM9.16406 10.8333H10.8307V5.83329H9.16406V10.8333ZM9.9974 18.3333C8.84462 18.3333 7.76128 18.1145 6.7474 17.677C5.73351 17.2395 4.85156 16.6458 4.10156 15.8958C3.35156 15.1458 2.75781 14.2638 2.32031 13.25C1.88281 12.2361 1.66406 11.1527 1.66406 9.99996C1.66406 8.84718 1.88281 7.76385 2.32031 6.74996C2.75781 5.73607 3.35156 4.85413 4.10156 4.10413C4.85156 3.35413 5.73351 2.76038 6.7474 2.32288C7.76128 1.88538 8.84462 1.66663 9.9974 1.66663C11.1502 1.66663 12.2335 1.88538 13.2474 2.32288C14.2613 2.76038 15.1432 3.35413 15.8932 4.10413C16.6432 4.85413 17.237 5.73607 17.6745 6.74996C18.112 7.76385 18.3307 8.84718 18.3307 9.99996C18.3307 11.1527 18.112 12.2361 17.6745 13.25C17.237 14.2638 16.6432 15.1458 15.8932 15.8958C15.1432 16.6458 14.2613 17.2395 13.2474 17.677C12.2335 18.1145 11.1502 18.3333 9.9974 18.3333Z" fill="#FF871F"/>
</g>
</svg>
