<svg width="38" height="38" viewBox="0 0 38 38" fill="none" xmlns="http://www.w3.org/2000/svg">
<circle cx="14" cy="14" r="14" fill="#FCD800"/>
<path d="M36.3302 27.3167C35.5969 26.0333 33.9802 25.5833 32.6969 26.3167L26.4802 29.75C26.3302 29.8333 26.1969 29.9 26.0469 29.9667C26.2135 29.6167 26.2969 29.2167 26.2969 28.8167C26.2969 27.2667 25.0302 26 23.4802 26H17.5802C16.1302 26 14.8469 26.6167 13.9302 27.6167C13.7469 26.7 12.9469 26 11.9635 26H9.29687C8.43021 26 7.69687 26.55 7.41354 27.3333H11.9635C12.3302 27.3333 12.6302 27.6333 12.6302 28V33.9C12.6302 34.2667 12.3302 34.5667 11.9635 34.5667H9.29687C8.93021 34.5667 8.63021 34.2667 8.63021 33.9V29.3333H7.29688V33.9C7.29688 35 8.19687 35.9 9.29687 35.9H11.9635C12.9302 35.9 13.7469 35.2 13.9302 34.2833C14.8302 35.2667 16.1302 35.9 17.5802 35.9H25.9469C26.2969 35.9 26.6302 35.8167 26.9302 35.65L35.3302 31C35.9469 30.65 36.3969 30.0833 36.5802 29.3833C36.7635 28.6833 36.6802 27.9333 36.3302 27.3167ZM35.2969 28.9833C35.1969 29.3333 34.9802 29.6167 34.6802 29.7833L26.2802 34.4333C26.1802 34.4833 26.0635 34.5167 25.9469 34.5167H17.5802C15.5969 34.5167 13.9635 32.9 13.9635 30.9C13.9635 28.9 15.5802 27.2833 17.5802 27.2833H23.4635C24.2802 27.2833 24.9469 27.95 24.9469 28.7667C24.9469 29.5833 24.2802 30.25 23.4635 30.25H19.6635V31.5833H24.4135C25.3802 31.5833 26.3135 31.3333 27.1469 30.8667L33.3635 27.4333C33.9969 27.0667 34.8135 27.3 35.1802 27.9333C35.3469 28.2833 35.3969 28.6333 35.2969 28.9833Z" fill="#00A6CA"/>
<path d="M23.1139 22.3999L18.0031 17.0769V15.7538H20.6031C21.3611 15.7538 22.0339 15.511 22.6216 15.0254C23.2093 14.5397 23.5334 13.8902 23.5939 13.0769H17.2031V11.8769H23.4308C23.2349 11.3282 22.8816 10.8782 22.3708 10.5269C21.8601 10.1756 21.2708 9.99997 20.6031 9.99997H17.2031V8.79999H26.4031V9.99997H23.5261C23.8103 10.2266 24.059 10.5028 24.2723 10.8284C24.4857 11.1541 24.6298 11.5036 24.7046 11.8769H26.4031V13.0769H24.8062C24.7508 14.2102 24.3149 15.1397 23.4985 15.8653C22.6821 16.591 21.7169 16.9538 20.6031 16.9538H19.5538L24.78 22.3999H23.1139Z" fill="#00A6CA"/>
</svg>
