<svg width="118" height="34" viewBox="0 0 118 34" fill="none" xmlns="http://www.w3.org/2000/svg">
<path d="M0 6C0 2.68629 2.70945 0 6.05172 0H111.948C115.291 0 118 2.68629 118 6V17C118 20.3137 115.291 23 111.948 23H6.36814C3.53017 23 0 25.5 0 30V6Z" fill="#FCD800"/>
<path d="M14.084 11.959H11.9102V10.5879H14.084C14.4199 10.5879 14.6934 10.5332 14.9043 10.4238C15.1152 10.3105 15.2695 10.1543 15.3672 9.95508C15.4648 9.75586 15.5137 9.53125 15.5137 9.28125C15.5137 9.02734 15.4648 8.79102 15.3672 8.57227C15.2695 8.35352 15.1152 8.17773 14.9043 8.04492C14.6934 7.91211 14.4199 7.8457 14.084 7.8457H12.5195V15H10.7617V6.46875H14.084C14.752 6.46875 15.3242 6.58984 15.8008 6.83203C16.2812 7.07031 16.6484 7.40039 16.9023 7.82227C17.1562 8.24414 17.2832 8.72656 17.2832 9.26953C17.2832 9.82031 17.1562 10.2969 16.9023 10.6992C16.6484 11.1016 16.2812 11.4121 15.8008 11.6309C15.3242 11.8496 14.752 11.959 14.084 11.959ZM20.1981 10.043V15H18.5106V8.66016H20.0985L20.1981 10.043ZM22.1083 8.61914L22.079 10.1836C21.997 10.1719 21.8973 10.1621 21.7802 10.1543C21.6669 10.1426 21.5634 10.1367 21.4696 10.1367C21.2313 10.1367 21.0243 10.168 20.8485 10.2305C20.6766 10.2891 20.5321 10.377 20.4149 10.4941C20.3016 10.6113 20.2157 10.7539 20.1571 10.9219C20.1024 11.0898 20.0712 11.2812 20.0634 11.4961L19.7235 11.3906C19.7235 10.9805 19.7645 10.6035 19.8466 10.2598C19.9286 9.91211 20.0477 9.60938 20.204 9.35156C20.3641 9.09375 20.5595 8.89453 20.7899 8.75391C21.0204 8.61328 21.2841 8.54297 21.5809 8.54297C21.6747 8.54297 21.7704 8.55078 21.868 8.56641C21.9657 8.57812 22.0458 8.5957 22.1083 8.61914ZM25.8259 15.1172C25.3337 15.1172 24.8923 15.0391 24.5017 14.8828C24.1111 14.7227 23.7791 14.502 23.5056 14.2207C23.2361 13.9395 23.0291 13.6133 22.8845 13.2422C22.74 12.8672 22.6677 12.4688 22.6677 12.0469V11.8125C22.6677 11.332 22.7361 10.8926 22.8728 10.4941C23.0095 10.0957 23.2048 9.75 23.4587 9.45703C23.7166 9.16406 24.0291 8.93945 24.3962 8.7832C24.7634 8.62305 25.1775 8.54297 25.6384 8.54297C26.0877 8.54297 26.4861 8.61719 26.8337 8.76562C27.1814 8.91406 27.4724 9.125 27.7068 9.39844C27.9451 9.67188 28.1248 10 28.2459 10.3828C28.367 10.7617 28.4275 11.1836 28.4275 11.6484V12.3516H23.3884V11.2266H26.7693V11.0977C26.7693 10.8633 26.7263 10.6543 26.6404 10.4707C26.5584 10.2832 26.4334 10.1348 26.2654 10.0254C26.0974 9.91602 25.8826 9.86133 25.6209 9.86133C25.3982 9.86133 25.2068 9.91016 25.0466 10.0078C24.8865 10.1055 24.7556 10.2422 24.6541 10.418C24.5564 10.5938 24.4822 10.8008 24.4314 11.0391C24.3845 11.2734 24.3611 11.5312 24.3611 11.8125V12.0469C24.3611 12.3008 24.3962 12.5352 24.4666 12.75C24.5408 12.9648 24.6443 13.1504 24.7771 13.3066C24.9138 13.4629 25.0779 13.584 25.2693 13.6699C25.4646 13.7559 25.6853 13.7988 25.9314 13.7988C26.2361 13.7988 26.5193 13.7402 26.781 13.623C27.0466 13.502 27.2752 13.3203 27.4666 13.0781L28.2869 13.9688C28.1541 14.1602 27.9724 14.3438 27.742 14.5195C27.5154 14.6953 27.242 14.8398 26.9216 14.9531C26.6013 15.0625 26.2361 15.1172 25.8259 15.1172ZM31.1959 9.97266V15H29.5026V8.66016H31.0905L31.1959 9.97266ZM30.9616 11.6074H30.4928C30.4928 11.166 30.5455 10.7598 30.651 10.3887C30.7604 10.0137 30.9186 9.68945 31.1256 9.41602C31.3366 9.13867 31.5963 8.92383 31.9049 8.77148C32.2135 8.61914 32.5709 8.54297 32.9772 8.54297C33.2584 8.54297 33.5163 8.58594 33.7506 8.67188C33.985 8.75391 34.1862 8.88477 34.3541 9.06445C34.526 9.24023 34.6588 9.4707 34.7526 9.75586C34.8463 10.0371 34.8932 10.375 34.8932 10.7695V15H33.2057V10.957C33.2057 10.668 33.1666 10.4453 33.0885 10.2891C33.0104 10.1328 32.8991 10.0234 32.7545 9.96094C32.6139 9.89844 32.444 9.86719 32.2448 9.86719C32.026 9.86719 31.8346 9.91211 31.6705 10.002C31.5104 10.0918 31.3776 10.2168 31.2721 10.377C31.1666 10.5332 31.0885 10.7168 31.0377 10.9277C30.987 11.1387 30.9616 11.3652 30.9616 11.6074ZM34.735 11.4141L34.1315 11.4902C34.1315 11.0762 34.1823 10.6914 34.2838 10.3359C34.3893 9.98047 34.5436 9.66797 34.7467 9.39844C34.9538 9.12891 35.2096 8.91992 35.5143 8.77148C35.819 8.61914 36.1705 8.54297 36.569 8.54297C36.8737 8.54297 37.151 8.58789 37.401 8.67773C37.651 8.76367 37.8639 8.90234 38.0397 9.09375C38.2194 9.28125 38.3561 9.52734 38.4498 9.83203C38.5475 10.1367 38.5963 10.5098 38.5963 10.9512V15H36.903V10.9512C36.903 10.6582 36.8639 10.4355 36.7858 10.2832C36.7116 10.127 36.6022 10.0195 36.4577 9.96094C36.317 9.89844 36.1491 9.86719 35.9538 9.86719C35.7506 9.86719 35.5729 9.9082 35.4205 9.99023C35.2682 10.0684 35.1413 10.1777 35.0397 10.3184C34.9381 10.459 34.862 10.623 34.8112 10.8105C34.7604 10.9941 34.735 11.1953 34.735 11.4141ZM41.8042 8.66016V15H40.1109V8.66016H41.8042ZM40.0054 7.00781C40.0054 6.76172 40.0913 6.55859 40.2632 6.39844C40.4351 6.23828 40.6655 6.1582 40.9546 6.1582C41.2398 6.1582 41.4683 6.23828 41.6402 6.39844C41.8159 6.55859 41.9038 6.76172 41.9038 7.00781C41.9038 7.25391 41.8159 7.45703 41.6402 7.61719C41.4683 7.77734 41.2398 7.85742 40.9546 7.85742C40.6655 7.85742 40.4351 7.77734 40.2632 7.61719C40.0913 7.45703 40.0054 7.25391 40.0054 7.00781ZM47.0687 13.4824V8.66016H48.7562V15H47.1684L47.0687 13.4824ZM47.2562 12.1816L47.7543 12.1699C47.7543 12.5918 47.7055 12.9844 47.6078 13.3477C47.5102 13.707 47.3637 14.0195 47.1684 14.2852C46.973 14.5469 46.727 14.752 46.4301 14.9004C46.1332 15.0449 45.7836 15.1172 45.3812 15.1172C45.0727 15.1172 44.7875 15.0742 44.5258 14.9883C44.268 14.8984 44.0453 14.7598 43.8578 14.5723C43.6742 14.3809 43.5297 14.1367 43.4242 13.8398C43.3227 13.5391 43.2719 13.1777 43.2719 12.7559V8.66016H44.9594V12.7676C44.9594 12.9551 44.9809 13.1133 45.0238 13.2422C45.0707 13.3711 45.1352 13.4766 45.2172 13.5586C45.2992 13.6406 45.3949 13.6992 45.5043 13.7344C45.6176 13.7695 45.7426 13.7871 45.8793 13.7871C46.227 13.7871 46.5004 13.7168 46.6996 13.5762C46.9027 13.4355 47.0453 13.2441 47.1273 13.002C47.2133 12.7559 47.2562 12.4824 47.2562 12.1816ZM51.8528 9.97266V15H50.1595V8.66016H51.7473L51.8528 9.97266ZM51.6184 11.6074H51.1497C51.1497 11.166 51.2024 10.7598 51.3079 10.3887C51.4173 10.0137 51.5755 9.68945 51.7825 9.41602C51.9934 9.13867 52.2532 8.92383 52.5618 8.77148C52.8704 8.61914 53.2278 8.54297 53.6341 8.54297C53.9153 8.54297 54.1731 8.58594 54.4075 8.67188C54.6419 8.75391 54.843 8.88477 55.011 9.06445C55.1829 9.24023 55.3157 9.4707 55.4095 9.75586C55.5032 10.0371 55.5501 10.375 55.5501 10.7695V15H53.8626V10.957C53.8626 10.668 53.8235 10.4453 53.7454 10.2891C53.6673 10.1328 53.5559 10.0234 53.4114 9.96094C53.2708 9.89844 53.1009 9.86719 52.9016 9.86719C52.6829 9.86719 52.4915 9.91211 52.3274 10.002C52.1673 10.0918 52.0345 10.2168 51.929 10.377C51.8235 10.5332 51.7454 10.7168 51.6946 10.9277C51.6438 11.1387 51.6184 11.3652 51.6184 11.6074ZM55.3919 11.4141L54.7884 11.4902C54.7884 11.0762 54.8391 10.6914 54.9407 10.3359C55.0462 9.98047 55.2005 9.66797 55.4036 9.39844C55.6106 9.12891 55.8665 8.91992 56.1712 8.77148C56.4759 8.61914 56.8274 8.54297 57.2259 8.54297C57.5305 8.54297 57.8079 8.58789 58.0579 8.67773C58.3079 8.76367 58.5208 8.90234 58.6966 9.09375C58.8763 9.28125 59.013 9.52734 59.1067 9.83203C59.2044 10.1367 59.2532 10.5098 59.2532 10.9512V15H57.5598V10.9512C57.5598 10.6582 57.5208 10.4355 57.4427 10.2832C57.3684 10.127 57.2591 10.0195 57.1145 9.96094C56.9739 9.89844 56.8059 9.86719 56.6106 9.86719C56.4075 9.86719 56.2298 9.9082 56.0774 9.99023C55.9251 10.0684 55.7981 10.1777 55.6966 10.3184C55.595 10.459 55.5188 10.623 55.468 10.8105C55.4173 10.9941 55.3919 11.1953 55.3919 11.4141ZM67.2159 11.959H65.042V10.5879H67.2159C67.5518 10.5879 67.8252 10.5332 68.0362 10.4238C68.2471 10.3105 68.4014 10.1543 68.4991 9.95508C68.5967 9.75586 68.6455 9.53125 68.6455 9.28125C68.6455 9.02734 68.5967 8.79102 68.4991 8.57227C68.4014 8.35352 68.2471 8.17773 68.0362 8.04492C67.8252 7.91211 67.5518 7.8457 67.2159 7.8457H65.6514V15H63.8936V6.46875H67.2159C67.8838 6.46875 68.4561 6.58984 68.9327 6.83203C69.4131 7.07031 69.7803 7.40039 70.0342 7.82227C70.2881 8.24414 70.4151 8.72656 70.4151 9.26953C70.4151 9.82031 70.2881 10.2969 70.0342 10.6992C69.7803 11.1016 69.4131 11.4121 68.9327 11.6309C68.4561 11.8496 67.8838 11.959 67.2159 11.959ZM74.9941 13.5703V10.7461C74.9941 10.543 74.9609 10.3691 74.8945 10.2246C74.828 10.0762 74.7245 9.96094 74.5839 9.87891C74.4472 9.79688 74.2695 9.75586 74.0507 9.75586C73.8632 9.75586 73.7011 9.78906 73.5644 9.85547C73.4277 9.91797 73.3222 10.0098 73.248 10.1309C73.1738 10.248 73.1366 10.3867 73.1366 10.5469H71.4491C71.4491 10.2773 71.5116 10.0215 71.6366 9.7793C71.7616 9.53711 71.9433 9.32422 72.1816 9.14062C72.4198 8.95312 72.703 8.80664 73.0312 8.70117C73.3632 8.5957 73.7343 8.54297 74.1445 8.54297C74.6366 8.54297 75.0741 8.625 75.457 8.78906C75.8398 8.95312 76.1405 9.19922 76.3593 9.52734C76.582 9.85547 76.6933 10.2656 76.6933 10.7578V13.4707C76.6933 13.8184 76.7148 14.1035 76.7577 14.3262C76.8007 14.5449 76.8632 14.7363 76.9452 14.9004V15H75.2402C75.1581 14.8281 75.0956 14.6133 75.0527 14.3555C75.0136 14.0938 74.9941 13.832 74.9941 13.5703ZM75.2167 11.1387L75.2284 12.0938H74.2851C74.0624 12.0938 73.8691 12.1191 73.705 12.1699C73.5409 12.2207 73.4062 12.293 73.3007 12.3867C73.1952 12.4766 73.1171 12.582 73.0663 12.7031C73.0195 12.8242 72.996 12.957 72.996 13.1016C72.996 13.2461 73.0292 13.377 73.0956 13.4941C73.162 13.6074 73.2577 13.6973 73.3827 13.7637C73.5077 13.8262 73.6542 13.8574 73.8222 13.8574C74.0761 13.8574 74.2968 13.8066 74.4843 13.7051C74.6718 13.6035 74.8163 13.4785 74.9179 13.3301C75.0234 13.1816 75.078 13.041 75.082 12.9082L75.5273 13.623C75.4648 13.7832 75.3788 13.9492 75.2695 14.1211C75.164 14.293 75.0292 14.4551 74.8652 14.6074C74.7011 14.7559 74.5038 14.8789 74.2734 14.9766C74.0429 15.0703 73.7695 15.1172 73.453 15.1172C73.0507 15.1172 72.6855 15.0371 72.3573 14.877C72.0331 14.7129 71.7753 14.4883 71.5839 14.2031C71.3964 13.9141 71.3027 13.5859 71.3027 13.2188C71.3027 12.8867 71.3652 12.5918 71.4902 12.334C71.6152 12.0762 71.7988 11.8594 72.0409 11.6836C72.287 11.5039 72.5937 11.3691 72.9609 11.2793C73.328 11.1855 73.7538 11.1387 74.2382 11.1387H75.2167ZM79.8016 10.043V15H78.1141V8.66016H79.702L79.8016 10.043ZM81.7117 8.61914L81.6824 10.1836C81.6004 10.1719 81.5008 10.1621 81.3836 10.1543C81.2703 10.1426 81.1668 10.1367 81.073 10.1367C80.8348 10.1367 80.6277 10.168 80.452 10.2305C80.2801 10.2891 80.1355 10.377 80.0184 10.4941C79.9051 10.6113 79.8191 10.7539 79.7605 10.9219C79.7059 11.0898 79.6746 11.2812 79.6668 11.4961L79.327 11.3906C79.327 10.9805 79.368 10.6035 79.45 10.2598C79.532 9.91211 79.6512 9.60938 79.8074 9.35156C79.9676 9.09375 80.1629 8.89453 80.3934 8.75391C80.6238 8.61328 80.8875 8.54297 81.1844 8.54297C81.2781 8.54297 81.3738 8.55078 81.4715 8.56641C81.5691 8.57812 81.6492 8.5957 81.7117 8.61914ZM86.027 8.66016V9.85547H82.3356V8.66016H86.027ZM83.2497 7.0957H84.9372V13.0898C84.9372 13.2734 84.9606 13.4141 85.0075 13.5117C85.0583 13.6094 85.1325 13.6777 85.2302 13.7168C85.3278 13.752 85.4509 13.7695 85.5993 13.7695C85.7048 13.7695 85.7985 13.7656 85.8805 13.7578C85.9665 13.7461 86.0387 13.7344 86.0973 13.7227L86.1032 14.9648C85.9587 15.0117 85.8024 15.0488 85.6345 15.0762C85.4665 15.1035 85.2809 15.1172 85.0778 15.1172C84.7067 15.1172 84.3825 15.0566 84.1052 14.9355C83.8317 14.8105 83.6208 14.6113 83.4723 14.3379C83.3239 14.0645 83.2497 13.7051 83.2497 13.2598V7.0957ZM88.7603 10.0137V15H87.0728V8.66016H88.6548L88.7603 10.0137ZM88.5142 11.6074H88.0572C88.0572 11.1387 88.1177 10.7168 88.2388 10.3418C88.3599 9.96289 88.5298 9.64062 88.7486 9.375C88.9673 9.10547 89.2271 8.90039 89.5279 8.75977C89.8326 8.61523 90.1724 8.54297 90.5474 8.54297C90.8443 8.54297 91.1158 8.58594 91.3619 8.67188C91.608 8.75781 91.8189 8.89453 91.9947 9.08203C92.1744 9.26953 92.3111 9.51758 92.4048 9.82617C92.5025 10.1348 92.5513 10.5117 92.5513 10.957V15H90.8521V10.9512C90.8521 10.6699 90.813 10.4512 90.7349 10.2949C90.6568 10.1387 90.5416 10.0293 90.3892 9.9668C90.2408 9.90039 90.0572 9.86719 89.8384 9.86719C89.6119 9.86719 89.4146 9.91211 89.2466 10.002C89.0826 10.0918 88.9459 10.2168 88.8365 10.377C88.731 10.5332 88.6509 10.7168 88.5963 10.9277C88.5416 11.1387 88.5142 11.3652 88.5142 11.6074ZM96.8725 15.1172C96.3803 15.1172 95.9389 15.0391 95.5483 14.8828C95.1577 14.7227 94.8256 14.502 94.5522 14.2207C94.2827 13.9395 94.0756 13.6133 93.9311 13.2422C93.7866 12.8672 93.7143 12.4688 93.7143 12.0469V11.8125C93.7143 11.332 93.7827 10.8926 93.9194 10.4941C94.0561 10.0957 94.2514 9.75 94.5053 9.45703C94.7631 9.16406 95.0756 8.93945 95.4428 8.7832C95.81 8.62305 96.2241 8.54297 96.685 8.54297C97.1342 8.54297 97.5327 8.61719 97.8803 8.76562C98.228 8.91406 98.519 9.125 98.7534 9.39844C98.9916 9.67188 99.1713 10 99.2924 10.3828C99.4135 10.7617 99.4741 11.1836 99.4741 11.6484V12.3516H94.435V11.2266H97.8159V11.0977C97.8159 10.8633 97.7729 10.6543 97.687 10.4707C97.6049 10.2832 97.4799 10.1348 97.312 10.0254C97.144 9.91602 96.9291 9.86133 96.6674 9.86133C96.4448 9.86133 96.2534 9.91016 96.0932 10.0078C95.933 10.1055 95.8022 10.2422 95.7006 10.418C95.603 10.5938 95.5287 10.8008 95.478 11.0391C95.4311 11.2734 95.4077 11.5312 95.4077 11.8125V12.0469C95.4077 12.3008 95.4428 12.5352 95.5131 12.75C95.5873 12.9648 95.6909 13.1504 95.8237 13.3066C95.9604 13.4629 96.1245 13.584 96.3159 13.6699C96.5112 13.7559 96.7319 13.7988 96.978 13.7988C97.2827 13.7988 97.5659 13.7402 97.8276 13.623C98.0932 13.502 98.3217 13.3203 98.5131 13.0781L99.3334 13.9688C99.2006 14.1602 99.019 14.3438 98.7885 14.5195C98.562 14.6953 98.2885 14.8398 97.9682 14.9531C97.6479 15.0625 97.2827 15.1172 96.8725 15.1172ZM102.243 10.043V15H100.555V8.66016H102.143L102.243 10.043ZM104.153 8.61914L104.123 10.1836C104.041 10.1719 103.942 10.1621 103.825 10.1543C103.711 10.1426 103.608 10.1367 103.514 10.1367C103.276 10.1367 103.069 10.168 102.893 10.2305C102.721 10.2891 102.576 10.377 102.459 10.4941C102.346 10.6113 102.26 10.7539 102.201 10.9219C102.147 11.0898 102.116 11.2812 102.108 11.4961L101.768 11.3906C101.768 10.9805 101.809 10.6035 101.891 10.2598C101.973 9.91211 102.092 9.60938 102.248 9.35156C102.409 9.09375 102.604 8.89453 102.834 8.75391C103.065 8.61328 103.328 8.54297 103.625 8.54297C103.719 8.54297 103.815 8.55078 103.912 8.56641C104.01 8.57812 104.09 8.5957 104.153 8.61914Z" fill="#262626"/>
<path d="M5 23C3.67392 23 2.40215 23.5795 1.46447 24.6109C0.526784 25.6424 4.21515e-08 27.0413 0 28.5C-4.21515e-08 29.9587 0.526784 31.3576 1.46447 32.3891C2.40215 33.4205 3.67392 34 5 34V23Z" fill="#FFC700"/>
</svg>
