<svg width="40" height="40" viewBox="0 0 40 40" fill="none" xmlns="http://www.w3.org/2000/svg">
<mask id="mask0_1909_32949" style="mask-type:alpha" maskUnits="userSpaceOnUse" x="0" y="0" width="40" height="40">
<rect width="40" height="40" fill="#D9D9D9"/>
</mask>
<g mask="url(#mask0_1909_32949)">
<path d="M13.75 19.5836V17.0837H26.2499V19.5836H13.75ZM13.75 12.9169V10.417H26.2499V12.9169H13.75ZM9.99996 23.7503H22.5C23.2414 23.7503 23.9273 23.9106 24.5576 24.2311C25.188 24.5516 25.7232 25.0046 26.1634 25.59L30 30.5901V7.17983C30 7.03024 29.9519 6.90737 29.8557 6.8112C29.7595 6.71503 29.6367 6.66695 29.4871 6.66695H10.5128C10.3633 6.66695 10.2404 6.71503 10.1442 6.8112C10.048 6.90737 9.99996 7.03024 9.99996 7.17983V23.7503ZM10.5128 33.3336H28.9455L24.1955 27.1189C23.9861 26.8432 23.7366 26.6295 23.4471 26.4778C23.1576 26.3261 22.8418 26.2502 22.5 26.2502H9.99996V32.8207C9.99996 32.9703 10.048 33.0932 10.1442 33.1894C10.2404 33.2855 10.3633 33.3336 10.5128 33.3336ZM29.4871 35.8336H10.5128C9.67094 35.8336 8.95833 35.5419 8.375 34.9586C7.79167 34.3752 7.5 33.6626 7.5 32.8207V7.17983C7.5 6.33794 7.79167 5.62533 8.375 5.04199C8.95833 4.45866 9.67094 4.16699 10.5128 4.16699H29.4871C30.329 4.16699 31.0416 4.45866 31.6249 5.04199C32.2083 5.62533 32.4999 6.33794 32.4999 7.17983V32.8207C32.4999 33.6626 32.2083 34.3752 31.6249 34.9586C31.0416 35.5419 30.329 35.8336 29.4871 35.8336Z" fill="#00A6CA"/>
</g>
</svg>
