<svg width="44" height="44" viewBox="0 0 44 44" fill="none" xmlns="http://www.w3.org/2000/svg">
<circle cx="22" cy="22" r="22" fill="#FCD800"/>
<mask id="mask0_1654_25950" style="mask-type:alpha" maskUnits="userSpaceOnUse" x="6" y="6" width="32" height="32">
<rect x="6" y="6" width="32" height="32" fill="#D9D9D9"/>
</mask>
<g mask="url(#mask0_1654_25950)">
<path d="M23.5138 27.4401L23.5576 27.4833H23.6191H24.8264H25.192L24.9318 27.2266L21.4049 23.7458H21.7997C22.6405 23.7458 23.3745 23.4853 23.9944 22.9635L23.8978 22.8488L23.9944 22.9635C24.5816 22.4693 24.9128 21.8405 24.9848 21.0851H26.0026H26.1526V20.9351V20.1116V19.9616H26.0026H24.8898C24.8263 19.7298 24.7234 19.5113 24.5819 19.3067L24.5819 19.3067C24.4989 19.1867 24.4085 19.0755 24.311 18.9735H26.0026H26.1526V18.8235V18V17.85H26.0026H19.3359H19.1859V18V18.8235V18.9735H19.3359H21.7997C22.2574 18.9735 22.6553 19.0871 22.9988 19.3108C23.2743 19.4903 23.4788 19.7072 23.6161 19.9616H19.3359H19.1859V20.1116V20.9351V21.0851H19.3359H23.7985C23.7288 21.5268 23.5197 21.8805 23.1699 22.1542C22.7709 22.4665 22.316 22.6223 21.7997 22.6223H19.9157H19.7657V22.7723V23.6802V23.743L19.8103 23.787L23.5138 27.4401Z" fill="#262626" stroke="#262626" stroke-width="0.3"/>
<path d="M21.9725 33.3334C19.0854 33.3334 16.5691 32.3829 14.4239 30.4821C12.2786 28.5812 11.0435 26.1983 10.7188 23.3334H12.7597C13.0965 25.6359 14.1328 27.5449 15.8687 29.0603C17.6046 30.5757 19.6392 31.3334 21.9725 31.3334C24.5725 31.3334 26.7781 30.4278 28.5892 28.6167C30.4003 26.8056 31.3059 24.6 31.3059 22C31.3059 19.4 30.4003 17.1945 28.5892 15.3834C26.7781 13.5723 24.5725 12.6667 21.9725 12.6667C20.5161 12.6667 19.1512 12.9902 17.8777 13.6372C16.6042 14.2842 15.5076 15.1744 14.5879 16.3077H18.0751V18.3077H11.306V11.5385H13.3059V14.6975C14.388 13.4206 15.6837 12.4296 17.1931 11.7244C18.7025 11.0193 20.2956 10.6667 21.9725 10.6667C23.5452 10.6667 25.0187 10.9642 26.3931 11.5591C27.7674 12.1539 28.9657 12.9625 29.9879 13.9847C31.0101 15.0069 31.8187 16.2052 32.4135 17.5795C33.0084 18.9539 33.3058 20.4274 33.3058 22C33.3058 23.5727 33.0084 25.0462 32.4135 26.4205C31.8187 27.7949 31.0101 28.9932 29.9879 30.0154C28.9657 31.0376 27.7674 31.8462 26.3931 32.441C25.0187 33.0359 23.5452 33.3334 21.9725 33.3334Z" fill="#262626"/>
</g>
</svg>
