<svg width="24" height="24" viewBox="0 0 24 24" fill="none" xmlns="http://www.w3.org/2000/svg">
<mask id="mask0_1743_15893" style="mask-type:alpha" maskUnits="userSpaceOnUse" x="0" y="0" width="24" height="24">
<rect width="24" height="24" fill="#D9D9D9"/>
</mask>
<g mask="url(#mask0_1743_15893)">
<path d="M13.1508 16.15L13.107 16.1068L10.3294 13.367L10.2848 13.3229V13.2602V12.5792V12.4292H10.4348H11.8478L13.1508 16.15ZM13.1508 16.15H13.2124M13.1508 16.15H13.2124M13.2124 16.15H14.1179H14.4834L14.2232 15.8932L11.6431 13.3468H11.8478C12.4868 13.3468 13.046 13.1487 13.518 12.7513L13.4214 12.6366L13.518 12.7513C13.9571 12.3817 14.209 11.9125 14.2705 11.3514H15H15.15V11.2014V10.5837V10.4337H15H14.1937C14.1445 10.2659 14.0682 10.1074 13.9653 9.95872L13.9653 9.95871C13.9187 9.89135 13.8691 9.82764 13.8165 9.76764H15H15.15V9.61764V9V8.85H15H10H9.85V9V9.61764V9.76764H10H11.8478C12.1845 9.76764 12.4757 9.8511 12.7267 10.0145C12.9081 10.1327 13.0467 10.2724 13.1453 10.4337H10H9.85V10.5837V11.2014V11.3514H10H13.3023M13.2124 16.15L13.3023 11.3514M13.3023 11.3514C13.2451 11.6533 13.0954 11.8959 12.8524 12.0861L13.3023 11.3514Z" fill="white" stroke="white" stroke-width="0.3"/>
<path d="M11.9794 20.5C9.81403 20.5 7.92685 19.7871 6.31789 18.3615C4.70892 16.9359 3.78265 15.1487 3.53906 13H5.06979C5.32235 14.7269 6.0996 16.1586 7.40151 17.2952C8.70345 18.4317 10.2294 19 11.9794 19C13.9294 19 15.5836 18.3208 16.9419 16.9625C18.3002 15.6041 18.9794 13.95 18.9794 12C18.9794 10.05 18.3002 8.39581 16.9419 7.03748C15.5836 5.67914 13.9294 4.99997 11.9794 4.99997C10.8871 4.99997 9.8634 5.2426 8.90826 5.72785C7.95315 6.2131 7.13071 6.88073 6.44096 7.73073H9.05634V9.2307H3.97949V4.15382H5.47944V6.52308C6.29097 5.56539 7.26276 4.82212 8.39481 4.29327C9.52686 3.76442 10.7217 3.5 11.9794 3.5C13.1589 3.5 14.264 3.72308 15.2948 4.16925C16.3255 4.6154 17.2242 5.2218 17.9909 5.98845C18.7576 6.75512 19.364 7.65383 19.8101 8.6846C20.2563 9.71537 20.4794 10.8205 20.4794 12C20.4794 13.1795 20.2563 14.2846 19.8101 15.3154C19.364 16.3461 18.7576 17.2448 17.9909 18.0115C17.2242 18.7782 16.3255 19.3846 15.2948 19.8307C14.264 20.2769 13.1589 20.5 11.9794 20.5Z" fill="white"/>
</g>
</svg>
