<svg width="50" height="50" viewBox="0 0 50 50" fill="none" xmlns="http://www.w3.org/2000/svg">
<circle cx="25" cy="25" r="25" fill="#E6F6FA"/>
<mask id="mask0_1810_26639" style="mask-type:alpha" maskUnits="userSpaceOnUse" x="9" y="9" width="32" height="32">
<rect x="9" y="9" width="32" height="32" fill="#D9D9D9"/>
</mask>
<g mask="url(#mask0_1810_26639)">
<path d="M20 32.6668H29.9999V30.6668H20V32.6668ZM20 27.3334H29.9999V25.3335H20V27.3334ZM17.4103 37.6668C16.7368 37.6668 16.1667 37.4334 15.7 36.9668C15.2333 36.5001 15 35.93 15 35.2565V14.7438C15 14.0703 15.2333 13.5002 15.7 13.0335C16.1667 12.5668 16.7368 12.3335 17.4103 12.3335H28L34.9999 19.3334V35.2565C34.9999 35.93 34.7666 36.5001 34.2999 36.9668C33.8333 37.4334 33.2632 37.6668 32.5897 37.6668H17.4103ZM27 20.3334V14.3335H17.4103C17.3077 14.3335 17.2137 14.3762 17.1282 14.4617C17.0427 14.5472 17 14.6412 17 14.7438V35.2565C17 35.3591 17.0427 35.4531 17.1282 35.5386C17.2137 35.6241 17.3077 35.6668 17.4103 35.6668H32.5897C32.6922 35.6668 32.7863 35.6241 32.8718 35.5386C32.9572 35.4531 33 35.3591 33 35.2565V20.3334H27Z" fill="#00A6CA"/>
</g>
</svg>
