<svg width="44" height="44" viewBox="0 0 44 44" fill="none" xmlns="http://www.w3.org/2000/svg">
<circle cx="22" cy="22" r="22" fill="#FCD800"/>
<mask id="mask0_1650_17288" style="mask-type:alpha" maskUnits="userSpaceOnUse" x="6" y="6" width="32" height="32">
<rect x="6" y="6" width="32" height="32" fill="#D9D9D9"/>
</mask>
<g mask="url(#mask0_1650_17288)">
<path d="M17 29.6666H26.9999V27.6667H17V29.6666ZM17 24.3333H26.9999V22.3334H17V24.3333ZM14.4103 34.6666C13.7368 34.6666 13.1667 34.4333 12.7 33.9666C12.2333 33.5 12 32.9299 12 32.2564V11.7436C12 11.0701 12.2333 10.5 12.7 10.0334C13.1667 9.56671 13.7368 9.33337 14.4103 9.33337H25L31.9999 16.3333V32.2564C31.9999 32.9299 31.7666 33.5 31.2999 33.9666C30.8333 34.4333 30.2632 34.6666 29.5897 34.6666H14.4103ZM24 17.3333V11.3333H14.4103C14.3077 11.3333 14.2137 11.3761 14.1282 11.4615C14.0427 11.547 14 11.6411 14 11.7436V32.2564C14 32.359 14.0427 32.453 14.1282 32.5385C14.2137 32.6239 14.3077 32.6667 14.4103 32.6667H29.5897C29.6922 32.6667 29.7863 32.6239 29.8718 32.5385C29.9572 32.453 30 32.359 30 32.2564V17.3333H24Z" fill="#262626"/>
</g>
</svg>
