<svg width="20" height="20" viewBox="0 0 20 20" fill="none" xmlns="http://www.w3.org/2000/svg">
<mask id="mask0_1654_26132" style="mask-type:alpha" maskUnits="userSpaceOnUse" x="0" y="-1" width="20" height="21">
<rect y="-0.000488281" width="20" height="20" fill="#D9D9D9"/>
</mask>
<g mask="url(#mask0_1654_26132)">
<path d="M6.875 9.79118V8.54122H13.125V9.79118H6.875ZM6.875 6.45784V5.20789H13.125V6.45784H6.875ZM4.99998 11.8746H11.25C11.6207 11.8746 11.9636 11.9547 12.2788 12.1149C12.594 12.2752 12.8616 12.5017 13.0817 12.7944L15 15.2944V3.5893C15 3.51451 14.9759 3.45307 14.9279 3.40499C14.8798 3.35691 14.8183 3.33286 14.7435 3.33286H5.25642C5.18163 3.33286 5.12019 3.35691 5.0721 3.40499C5.02402 3.45307 4.99998 3.51451 4.99998 3.5893V11.8746ZM5.25642 16.6662H14.4728L12.0977 13.5588C11.993 13.421 11.8683 13.3142 11.7235 13.2383C11.5788 13.1624 11.4209 13.1245 11.25 13.1245H4.99998V16.4098C4.99998 16.4846 5.02402 16.546 5.0721 16.5941C5.12019 16.6422 5.18163 16.6662 5.25642 16.6662ZM14.7435 17.9162H5.25642C4.83547 17.9162 4.47917 17.7703 4.1875 17.4787C3.89583 17.187 3.75 16.8307 3.75 16.4098V3.5893C3.75 3.16836 3.89583 2.81205 4.1875 2.52039C4.47917 2.22872 4.83547 2.08289 5.25642 2.08289H14.7435C15.1645 2.08289 15.5208 2.22872 15.8125 2.52039C16.1041 2.81205 16.25 3.16836 16.25 3.5893V16.4098C16.25 16.8307 16.1041 17.187 15.8125 17.4787C15.5208 17.7703 15.1645 17.9162 14.7435 17.9162Z" fill="#00A6CA"/>
</g>
</svg>
