<svg width="44" height="44" viewBox="0 0 44 44" fill="none" xmlns="http://www.w3.org/2000/svg">
<circle cx="22" cy="22" r="22" fill="#FCD800"/>
<mask id="mask0_1654_27701" style="mask-type:alpha" maskUnits="userSpaceOnUse" x="6" y="6" width="32" height="32">
<rect x="6" y="6" width="32" height="32" fill="#D9D9D9"/>
</mask>
<g mask="url(#mask0_1654_27701)">
<path d="M20.141 26.4615C20.6145 26.935 21.2244 27.1598 21.9705 27.1358C22.7167 27.1119 23.2641 26.8427 23.6128 26.3282L30.8487 15.8462L20.341 23.0564C19.818 23.4051 19.5355 23.9414 19.4936 24.6654C19.4517 25.3893 19.6675 25.988 20.141 26.4615ZM22.0026 12C23.2709 12 24.4594 12.1662 25.5679 12.4987C26.6765 12.8312 27.747 13.3342 28.7795 14.0077L26.9 15.2231C26.1411 14.8196 25.3543 14.5149 24.5398 14.3089C23.7252 14.103 22.8795 14 22.0026 14C19.047 14 16.5303 15.0389 14.4526 17.1166C12.3748 19.1944 11.3359 21.7111 11.3359 24.6666C11.3359 25.6 11.4637 26.5222 11.7192 27.4333C11.9748 28.3444 12.3359 29.2 12.8026 30H31.2026C31.7137 29.1555 32.0859 28.2777 32.3192 27.3666C32.5526 26.4555 32.6692 25.5111 32.6692 24.5333C32.6692 23.7333 32.5705 22.9235 32.3731 22.1038C32.1756 21.2841 31.871 20.5059 31.459 19.7692L32.6743 17.8897C33.3325 18.9684 33.826 20.0474 34.1551 21.1269C34.4841 22.2064 34.6555 23.3282 34.6692 24.4923C34.6829 25.6991 34.547 26.8397 34.2615 27.9141C33.976 28.9884 33.5461 30.0393 32.9718 31.0666C32.7957 31.3555 32.5478 31.5833 32.2282 31.7499C31.9085 31.9166 31.5667 31.9999 31.2026 31.9999H12.8026C12.447 31.9999 12.1115 31.9145 11.7962 31.7435C11.4808 31.5726 11.2265 31.3298 11.0334 31.0153C10.524 30.1264 10.1137 29.1572 9.8026 28.1077C9.49149 27.0581 9.33594 25.9111 9.33594 24.6666C9.33594 22.9248 9.66637 21.2873 10.3272 19.7543C10.9881 18.2212 11.8902 16.8785 13.0336 15.7261C14.177 14.5736 15.5214 13.6645 17.0667 12.9987C18.612 12.3329 20.2573 12 22.0026 12Z" fill="#262626"/>
</g>
</svg>
