<svg width="40" height="40" viewBox="0 0 40 40" fill="none" xmlns="http://www.w3.org/2000/svg">
<circle cx="20" cy="20" r="20" fill="#E6F6FA"/>
<mask id="mask0_1925_19810" style="mask-type:alpha" maskUnits="userSpaceOnUse" x="4" y="4" width="32" height="32">
<rect x="4" y="4" width="32" height="32" fill="#D9D9D9"/>
</mask>
<g mask="url(#mask0_1925_19810)">
<path d="M19.9725 31.3336C17.0854 31.3336 14.5691 30.3832 12.4239 28.4823C10.2786 26.5815 9.04353 24.1986 8.71875 21.3336H10.7597C11.0965 23.6362 12.1328 25.5452 13.8687 27.0606C15.6046 28.5759 17.6392 29.3336 19.9725 29.3336C22.5725 29.3336 24.7781 28.4281 26.5892 26.617C28.4003 24.8059 29.3059 22.6003 29.3059 20.0003C29.3059 17.4003 28.4003 15.1947 26.5892 13.3836C24.7781 11.5725 22.5725 10.667 19.9725 10.667C18.5161 10.667 17.1512 10.9905 15.8777 11.6375C14.6042 12.2845 13.5076 13.1746 12.5879 14.308H16.0751V16.3079H9.30598V9.53876H11.3059V12.6978C12.388 11.4208 13.6837 10.4298 15.1931 9.72469C16.7025 9.01956 18.2956 8.66699 19.9725 8.66699C21.5452 8.66699 23.0187 8.96444 24.3931 9.55933C25.7674 10.1542 26.9657 10.9627 27.9879 11.9849C29.0101 13.0071 29.8187 14.2054 30.4135 15.5798C31.0084 16.9541 31.3058 18.4276 31.3058 20.0003C31.3058 21.5729 31.0084 23.0464 30.4135 24.4208C29.8187 25.7952 29.0101 26.9934 27.9879 28.0157C26.9657 29.0379 25.7674 29.8464 24.3931 30.4413C23.0187 31.0362 21.5452 31.3336 19.9725 31.3336ZM23.9751 25.3695L19.011 20.4054V13.3336H21.011V19.5952L25.3802 23.9644L23.9751 25.3695Z" fill="#00A6CA"/>
</g>
</svg>
