<svg width="24" height="24" viewBox="0 0 24 24" fill="none" xmlns="http://www.w3.org/2000/svg">
<mask id="mask0_1909_32884" style="mask-type:alpha" maskUnits="userSpaceOnUse" x="0" y="0" width="24" height="24">
<rect width="24" height="24" fill="#D9D9D9"/>
</mask>
<g mask="url(#mask0_1909_32884)">
<path d="M10.6038 15.3461C10.959 15.7012 11.4163 15.8698 11.9759 15.8519C12.5355 15.8339 12.9461 15.632 13.2077 15.2461L18.6346 7.38462L10.7538 12.7923C10.3615 13.0538 10.1497 13.4561 10.1183 13.999C10.0869 14.542 10.2487 14.991 10.6038 15.3461ZM12 4.5C12.9513 4.5 13.8426 4.62468 14.674 4.87405C15.5054 5.1234 16.3083 5.50064 17.0827 6.00577L15.6731 6.9173C15.1038 6.61473 14.5138 6.3862 13.9029 6.2317C13.292 6.07722 12.6577 5.99997 12 5.99997C9.78331 5.99997 7.89581 6.77914 6.33748 8.33747C4.77914 9.89581 3.99998 11.7833 3.99998 14C3.99998 14.7 4.09581 15.3916 4.28748 16.075C4.47914 16.7583 4.74998 17.4 5.09998 18H18.9C19.2833 17.3666 19.5625 16.7083 19.7375 16.025C19.9125 15.3416 20 14.6333 20 13.9C20 13.3 19.9259 12.6926 19.7779 12.0778C19.6298 11.4631 19.4013 10.8794 19.0923 10.3269L20.0038 8.9173C20.4974 9.72628 20.8676 10.5356 21.1144 11.3452C21.3612 12.1548 21.4897 12.9961 21.5 13.8692C21.5102 14.7743 21.4083 15.6298 21.1942 16.4355C20.9801 17.2413 20.6576 18.0295 20.2269 18.8C20.0948 19.0166 19.9089 19.1875 19.6692 19.3125C19.4295 19.4375 19.173 19.5 18.9 19.5H5.09998C4.83331 19.5 4.58171 19.4358 4.34518 19.3076C4.10864 19.1794 3.91794 18.9974 3.77307 18.7615C3.39102 18.0948 3.08333 17.3679 2.85 16.5808C2.61667 15.7936 2.5 14.9333 2.5 14C2.5 12.6936 2.74783 11.4655 3.24348 10.3157C3.73913 9.16592 4.41573 8.15887 5.27328 7.29455C6.13083 6.43023 7.13909 5.7484 8.29808 5.24905C9.45704 4.74968 10.691 4.5 12 4.5Z" fill="#004364"/>
</g>
</svg>
