<svg width="40" height="40" viewBox="0 0 40 40" fill="none" xmlns="http://www.w3.org/2000/svg">
<circle cx="20" cy="20" r="20" fill="#E6F6FA"/>
<mask id="mask0_1925_19808" style="mask-type:alpha" maskUnits="userSpaceOnUse" x="4" y="4" width="32" height="32">
<rect x="4" y="4" width="32" height="32" fill="#D9D9D9"/>
</mask>
<g mask="url(#mask0_1925_19808)">
<path d="M18.141 24.4615C18.6145 24.935 19.2244 25.1598 19.9705 25.1358C20.7167 25.1119 21.2641 24.8427 21.6128 24.3282L28.8487 13.8462L18.341 21.0564C17.818 21.4051 17.5355 21.9414 17.4936 22.6654C17.4517 23.3893 17.6675 23.988 18.141 24.4615ZM20.0026 10C21.2709 10 22.4594 10.1662 23.5679 10.4987C24.6765 10.8312 25.747 11.3342 26.7795 12.0077L24.9 13.2231C24.1411 12.8196 23.3543 12.5149 22.5398 12.3089C21.7252 12.103 20.8795 12 20.0026 12C17.047 12 14.5303 13.0389 12.4526 15.1166C10.3748 17.1944 9.3359 19.7111 9.3359 22.6666C9.3359 23.6 9.46368 24.5222 9.71924 25.4333C9.97479 26.3444 10.3359 27.2 10.8026 28H29.2026C29.7137 27.1555 30.0859 26.2777 30.3192 25.3666C30.5526 24.4555 30.6692 23.5111 30.6692 22.5333C30.6692 21.7333 30.5705 20.9235 30.3731 20.1038C30.1756 19.2841 29.871 18.5059 29.459 17.7692L30.6743 15.8897C31.3325 16.9684 31.826 18.0474 32.1551 19.1269C32.4841 20.2064 32.6555 21.3282 32.6692 22.4923C32.6829 23.6991 32.547 24.8397 32.2615 25.9141C31.976 26.9884 31.5461 28.0393 30.9718 29.0666C30.7957 29.3555 30.5478 29.5833 30.2282 29.7499C29.9085 29.9166 29.5667 29.9999 29.2026 29.9999H10.8026C10.447 29.9999 10.1115 29.9145 9.79617 29.7435C9.48079 29.5726 9.22653 29.3298 9.03337 29.0153C8.52397 28.1264 8.11372 27.1572 7.8026 26.1077C7.49149 25.0581 7.33594 23.9111 7.33594 22.6666C7.33594 20.9248 7.66637 19.2873 8.32724 17.7543C8.9881 16.2212 9.89024 14.8785 11.0336 13.7261C12.177 12.5736 13.5214 11.6645 15.0667 10.9987C16.612 10.3329 18.2573 10 20.0026 10Z" fill="#00A6CA"/>
</g>
</svg>
