<svg width="35" height="35" viewBox="0 0 35 35" fill="none" xmlns="http://www.w3.org/2000/svg">
<circle cx="14" cy="14" r="14" fill="#FCD800"/>
<mask id="mask0_1654_25863" style="mask-type:alpha" maskUnits="userSpaceOnUse" x="5" y="5" width="30" height="30">
<rect x="5" y="5" width="30" height="30" fill="#D9D9D9"/>
</mask>
<g mask="url(#mask0_1654_25863)">
<path d="M21.4101 25.1068L21.4539 25.15H21.5155H22.6473H23.0129L22.7527 24.8932L19.4625 21.646H19.8098C20.6001 21.646 21.2904 21.4012 21.8734 20.9105L21.7768 20.7957L21.8734 20.9105C22.4235 20.4474 22.7349 19.8585 22.8043 19.1517H23.75H23.9V19.0017V18.2296V18.0796H23.75H22.7138C22.6539 17.8638 22.5577 17.6603 22.4258 17.4697L22.4258 17.4697C22.352 17.3629 22.272 17.2637 22.1859 17.172H23.75H23.9V17.022V16.25V16.1H23.75H17.5H17.35V16.25V17.022V17.172H17.5H19.8098C20.2372 17.172 20.6085 17.2781 20.9288 17.4867C21.1809 17.651 21.369 17.8485 21.4968 18.0796H17.5H17.35V18.2296V19.0017V19.1517H17.5H21.6726C21.606 19.5584 21.4117 19.8843 21.0886 20.1372C20.7162 20.4286 20.2917 20.574 19.8098 20.574H18.0435H17.8935V20.724V21.5752V21.638L17.9381 21.682L21.4101 25.1068Z" fill="#00A6CA" stroke="#00A6CA" stroke-width="0.3"/>
<path d="M19.9723 30.625C17.2656 30.625 14.9066 29.7339 12.8954 27.9519C10.8842 26.1698 9.72635 23.9359 9.42188 21.25H11.3353C11.651 23.4086 12.6225 25.1983 14.2499 26.619C15.8774 28.0397 17.7848 28.75 19.9723 28.75C22.4098 28.75 24.4775 27.901 26.1754 26.2031C27.8734 24.5052 28.7223 22.4375 28.7223 20C28.7223 17.5625 27.8734 15.4948 26.1754 13.7969C24.4775 12.099 22.4098 11.25 19.9723 11.25C18.6069 11.25 17.3273 11.5533 16.1334 12.1598C14.9395 12.7664 13.9114 13.6009 13.0492 14.6634H16.3185V16.5384H9.97241V10.1923H11.8473V13.1539C12.8618 11.9568 14.0765 11.0277 15.4916 10.3666C16.9066 9.70556 18.4002 9.37503 19.9723 9.37503C21.4467 9.37503 22.8281 9.65388 24.1165 10.2116C25.405 10.7693 26.5284 11.5273 27.4867 12.4856C28.445 13.4439 29.203 14.5673 29.7607 15.8558C30.3184 17.1442 30.5972 18.5256 30.5972 20C30.5972 21.4744 30.3184 22.8558 29.7607 24.1442C29.203 25.4327 28.445 26.5561 27.4867 27.5144C26.5284 28.4727 25.405 29.2307 24.1165 29.7884C22.8281 30.3461 21.4467 30.625 19.9723 30.625Z" fill="#00A6CA"/>
</g>
</svg>
