<svg width="24" height="24" viewBox="0 0 24 24" fill="none" xmlns="http://www.w3.org/2000/svg">
<mask id="mask0_1909_32908" style="mask-type:alpha" maskUnits="userSpaceOnUse" x="0" y="0" width="24" height="24">
<rect width="24" height="24" fill="#D9D9D9"/>
</mask>
<g mask="url(#mask0_1909_32908)">
<path d="M0.5 17.7883V16.5691C0.5 15.9037 0.847433 15.3572 1.5423 14.9296C2.23717 14.5021 3.14293 14.2883 4.25958 14.2883C4.44419 14.2883 4.63009 14.2941 4.81727 14.3056C5.00446 14.3172 5.19292 14.3396 5.38265 14.3729C5.18778 14.6845 5.04323 15.0078 4.949 15.3431C4.85478 15.6783 4.80768 16.0223 4.80768 16.3748V17.7883H0.5ZM6.49998 17.7883V16.4133C6.49998 15.9451 6.63139 15.5172 6.89422 15.1295C7.15704 14.7418 7.53588 14.4037 8.03075 14.1152C8.52562 13.8268 9.11023 13.6104 9.78458 13.4662C10.4589 13.322 11.1961 13.2498 11.9961 13.2498C12.8115 13.2498 13.5564 13.322 14.2307 13.4662C14.9051 13.6104 15.4897 13.8268 15.9846 14.1152C16.4794 14.4037 16.8557 14.7418 17.1134 15.1295C17.3711 15.5172 17.4999 15.9451 17.4999 16.4133V17.7883H6.49998ZM19.1922 17.7883V16.3777C19.1922 16.0015 19.1477 15.6471 19.0586 15.3143C18.9695 14.9816 18.8358 14.6678 18.6576 14.3729C18.8538 14.3396 19.0413 14.3172 19.2201 14.3056C19.399 14.2941 19.5756 14.2883 19.7499 14.2883C20.8666 14.2883 21.7708 14.4995 22.4624 14.9219C23.1541 15.3444 23.4999 15.8934 23.4999 16.5691V17.7883H19.1922ZM8.07687 16.2883H15.9384V16.1825C15.8359 15.7787 15.4102 15.4389 14.6615 15.1633C13.9128 14.8876 13.0256 14.7498 12 14.7498C10.9743 14.7498 10.0871 14.8876 9.3384 15.1633C8.58968 15.4389 8.16917 15.7787 8.07687 16.1825V16.2883ZM4.25703 13.3171C3.78566 13.3171 3.38299 13.1496 3.04903 12.8144C2.71506 12.4792 2.54808 12.0763 2.54808 11.6056C2.54808 11.1287 2.71566 10.7258 3.05083 10.397C3.38599 10.0681 3.78891 9.90372 4.25958 9.90372C4.73649 9.90372 5.14097 10.0681 5.47302 10.397C5.80507 10.7258 5.9711 11.1297 5.9711 11.6085C5.9711 12.0732 5.80683 12.4742 5.4783 12.8114C5.14977 13.1486 4.74268 13.3171 4.25703 13.3171ZM19.7499 13.3171C19.2833 13.3171 18.8814 13.1486 18.5442 12.8114C18.207 12.4742 18.0384 12.0732 18.0384 11.6085C18.0384 11.1297 18.207 10.7258 18.5442 10.397C18.8814 10.0681 19.2839 9.90372 19.7518 9.90372C20.2339 9.90372 20.6393 10.0681 20.9682 10.397C21.297 10.7258 21.4615 11.1287 21.4615 11.6056C21.4615 12.0763 21.2974 12.4792 20.9694 12.8144C20.6413 13.1496 20.2349 13.3171 19.7499 13.3171ZM12.0033 12.4998C11.2831 12.4998 10.6698 12.2474 10.1634 11.7426C9.65703 11.2378 9.40382 10.6249 9.40382 9.90372C9.40382 9.16815 9.65623 8.55158 10.161 8.05399C10.6658 7.55641 11.2788 7.30762 12 7.30762C12.7355 7.30762 13.3521 7.55608 13.8497 8.05302C14.3473 8.54995 14.5961 9.16572 14.5961 9.90034C14.5961 10.6205 14.3476 11.2338 13.8507 11.7402C13.3537 12.2466 12.7379 12.4998 12.0033 12.4998ZM12.0047 10.9999C12.3105 10.9999 12.5689 10.8928 12.7798 10.6787C12.9907 10.4646 13.0961 10.2047 13.0961 9.89892C13.0961 9.59315 12.9911 9.33482 12.781 9.12392C12.5709 8.91302 12.3105 8.80757 12 8.80757C11.6974 8.80757 11.439 8.91262 11.2249 9.12272C11.0108 9.33282 10.9038 9.59315 10.9038 9.90372C10.9038 10.2063 11.0108 10.4646 11.2249 10.6787C11.439 10.8928 11.699 10.9999 12.0047 10.9999Z" fill="#004364"/>
</g>
</svg>
